<svg width="1701" height="285" viewBox="0 0 1701 285" fill="none" xmlns="http://www.w3.org/2000/svg">
<path d="M108.621 14.9876C136.113 1.38822 170.672 -4.86355 200.534 4.38699C207.412 6.51534 213.474 9.475 218.706 13.2727C232.368 23.1816 240.207 37.0401 242.224 54.76C244.045 70.8191 240.439 89.6279 230.11 102.498C216.69 119.217 199.08 127.142 177.383 126.25L176.347 126.201C165.376 125.616 155.953 121.711 148.122 114.488L148.121 114.487C145.857 112.393 143.832 109.195 142.012 104.979C139.348 98.8219 139.362 92.5993 140.527 86.5628C141.688 80.5527 144.009 74.6358 146.01 69.1214C146.206 68.5636 146.423 67.2394 146.624 65.012C146.784 63.251 146.455 61.6772 145.719 60.5296C145 59.4107 143.854 58.6268 142.188 58.4573C138.06 58.0339 134.228 59.4447 130.696 61.8089C127.157 64.1782 123.984 67.4616 121.206 70.6673L121.205 70.6682C116.192 76.4428 112.095 82.0786 108.905 87.5745L108.904 87.5755C94.1557 112.949 84.3512 139.681 79.4854 167.774C78.5365 173.254 77.7378 181.072 79.0723 187.774C79.738 191.117 80.9222 194.117 82.8232 196.409C84.7069 198.681 87.3356 200.311 91.0117 200.874C98.2987 201.989 104.682 198.712 109.929 193.691C115.354 188.496 120.824 181.901 126.336 173.896L126.772 173.278C129.074 170.083 133.191 165.37 139.085 159.164C145.758 152.147 153.511 146.575 162.337 142.456C173.833 137.093 188.051 135.507 200.782 138.542C213.531 141.582 224.859 149.283 230.383 162.538C235.687 175.274 233.249 191.581 227.533 203.631C220.519 218.418 209.39 231.582 196.909 242.533L196.91 242.534C184.944 253.04 171.862 261.739 157.667 268.632C138.252 278.058 117.657 283.325 95.8906 284.432C74.8722 285.499 55.0941 281.715 39 272.264C23.1391 262.95 10.9152 248.165 4.62403 227.251L4.32911 226.25C1.53413 216.575 0.0913652 206.854 0.00391006 197.088L3.80589e-06 196.143C-0.00995805 146.457 19.5369 97.2005 51.6494 59.5735C67.4005 41.1146 85.9582 26.4681 107.317 15.6409L108.621 14.9876Z" fill="#66DDFF"/>
<path d="M1076.75 134.523C1075.01 150.213 1073.76 157.803 1073.98 170.333C1074.04 174.353 1074.59 180.223 1077.09 182.853C1083.47 189.563 1093.09 179.623 1096.07 174.623C1108.68 153.463 1113.73 129.253 1106.09 106.163C1104.33 100.836 1101.71 94.1564 1098.22 86.1231C1097.04 83.4031 1095.89 79.2631 1095.19 77.0931C1091.02 64.2831 1089.64 50.8431 1092.95 38.2131C1096.53 24.5431 1102.56 13.6731 1115.3 6.52305C1124.38 1.43305 1134.89 0.373052 1145.33 1.65305C1162.53 3.75305 1175.03 17.923 1178.71 34.163C1180.89 43.7964 1181.76 54.7931 1181.31 67.1531C1180.74 83.0531 1178.29 100.78 1173.97 120.333C1169.32 141.433 1162.78 163.306 1154.35 185.953C1147.5 204.386 1139.2 222.49 1129.46 240.263C1124.21 249.863 1118.29 258.523 1111.71 266.243C1104.47 274.743 1094.2 282.253 1083.02 282.793C1074.72 283.183 1067.55 281.573 1060.74 276.183C1054.26 271.063 1049.02 264.713 1045.01 257.133C1038.97 245.7 1033.41 231.89 1028.32 215.703C1021.12 192.783 1016.8 173.033 1011.28 147.073C1006.01 122.226 1001.88 95.7564 998.891 67.663C997.724 56.6764 998.334 45.5297 1000.72 34.2231C1002.67 25.0331 1005.55 17.8831 1012.62 11.4031C1016.86 7.51638 1021.7 5.03972 1027.13 3.97305C1043.28 0.803051 1058.43 6.00305 1066.28 21.3031C1071.31 31.1097 1074.81 42.1131 1076.77 54.3131C1080.98 80.4331 1079.77 107.363 1076.75 134.523Z" fill="#9CFF3F"/>
<path d="M669.931 166.354C656.681 167.734 649.611 174.774 654.641 188.604C655.101 189.877 657.024 194.627 660.411 202.854C661.258 204.9 662.458 208.857 664.011 214.724C666.451 223.937 667.141 232.997 666.081 241.904C664.591 254.394 657.141 267.374 646.471 274.544C637.498 280.564 627.871 283.58 617.591 283.594C607.651 283.607 598.991 281.33 591.611 276.764C573.661 265.674 567.191 244.444 567.031 224.134C566.918 209.98 568.104 195.984 570.591 182.144C574.958 157.864 581.131 134.604 589.111 112.364C597.531 88.8737 608.901 65.3337 623.161 44.9437C626.608 40.0237 631.158 34.5737 636.811 28.5937C654.281 10.1337 678.311 -2.89629 704.571 2.49371C715.271 4.69371 724.311 10.2737 732.101 19.0237C739.874 27.7504 746.138 37.8604 750.891 49.3537C754.331 57.667 756.904 64.307 758.611 69.2737C760.981 76.1737 762.041 83.1337 763.981 90.2437C764.688 92.8437 765.338 95.6604 765.931 98.6937C771.498 127.027 774.294 154.51 774.321 181.144C774.334 194.624 773.088 208.66 770.581 223.254C768.541 235.134 764.891 246.434 759.741 255.664C756.128 262.144 751.041 267.627 744.481 272.114C737.211 277.094 729.161 278.254 720.251 277.744C709.191 277.11 699.991 272.404 692.651 263.624C681.321 250.064 679.361 229.054 683.361 212.654C685.781 202.724 687.471 197.784 690.731 187.234C691.591 184.454 691.914 181.22 691.701 177.534C691.101 167.034 678.091 165.504 669.931 166.354ZM651.831 109.314C651.321 117.564 655.011 123.124 663.141 124.124C671.141 125.104 679.851 122.254 686.211 117.744C697.111 109.994 700.161 91.7737 699.201 79.2837C698.231 66.6737 689.811 58.1537 677.031 65.1037C673.138 67.2237 669.494 70.5737 666.101 75.1537C658.281 85.6837 652.601 96.6637 651.831 109.314Z" fill="#F5F8FA"/>
<path d="M499.421 217.034C499.342 217.034 499.265 217.001 499.209 216.943C499.153 216.885 499.121 216.806 499.121 216.724V169.154C499.121 169.042 499.166 168.936 499.244 168.857C499.323 168.778 499.43 168.734 499.541 168.734H551.931C552.178 168.734 552.415 168.636 552.589 168.461C552.763 168.287 552.861 168.05 552.861 167.804V108.864C552.861 108.572 552.745 108.292 552.539 108.086C552.333 107.88 552.053 107.764 551.761 107.764H499.401C499.319 107.764 499.24 107.731 499.182 107.673C499.124 107.615 499.091 107.536 499.091 107.454V67.5737C499.091 67.4385 499.144 67.3088 499.238 67.2131C499.332 67.1175 499.459 67.0638 499.591 67.0638H558.751C559.088 67.0638 559.411 66.931 559.649 66.6947C559.888 66.4584 560.021 66.1379 560.021 65.8037V6.41375C560.021 6.06366 559.881 5.72792 559.632 5.48037C559.382 5.23282 559.044 5.09375 558.691 5.09375H433.021C432.699 5.09371 432.389 5.22055 432.159 5.44691C431.928 5.67327 431.797 5.98101 431.791 6.30375C431.691 12.2704 431.641 17.7204 431.641 22.6537C431.648 109 431.638 193.25 431.611 275.404C431.611 276.85 432.001 277.96 432.781 278.734C432.876 278.829 432.99 278.904 433.115 278.956C433.24 279.007 433.375 279.034 433.511 279.034C446.311 278.904 460.891 278.324 474.611 278.904C478.645 279.077 483.145 279.14 488.111 279.094C515.111 278.854 537.945 278.817 556.611 278.984C558.845 279.004 560.325 278.86 561.051 278.554C561.202 278.492 561.331 278.386 561.421 278.249C561.512 278.112 561.561 277.95 561.561 277.784V218.444C561.561 218.259 561.525 218.075 561.454 217.904C561.383 217.733 561.279 217.578 561.148 217.447C561.017 217.316 560.862 217.212 560.691 217.141C560.52 217.07 560.336 217.034 560.151 217.034H499.421Z" fill="#9CFF3F"/>
<path d="M499.421 217.034H560.151C560.336 217.034 560.52 217.07 560.691 217.141C560.862 217.212 561.017 217.316 561.148 217.447C561.279 217.578 561.383 217.733 561.454 217.904C561.525 218.075 561.561 218.259 561.561 218.444V277.784C561.561 277.95 561.512 278.112 561.421 278.249C561.331 278.386 561.202 278.492 561.051 278.554C560.325 278.86 558.845 279.004 556.611 278.984C537.945 278.817 515.111 278.854 488.111 279.094C483.145 279.14 478.645 279.077 474.611 278.904C460.891 278.324 446.311 278.904 433.511 279.034C433.375 279.034 433.24 279.007 433.115 278.956C432.99 278.904 432.876 278.829 432.781 278.734C432.001 277.96 431.611 276.85 431.611 275.404C431.638 193.25 431.648 109 431.641 22.6537C431.641 17.7204 431.691 12.2704 431.791 6.30375C431.797 5.98101 431.928 5.67327 432.159 5.44691C432.389 5.22055 432.699 5.09371 433.021 5.09375H558.691C559.044 5.09375 559.382 5.23282 559.632 5.48037C559.881 5.72792 560.021 6.06366 560.021 6.41375V65.8037C560.021 66.1379 559.888 66.4584 559.649 66.6947C559.411 66.931 559.088 67.0638 558.751 67.0638H499.591C499.459 67.0638 499.332 67.1175 499.238 67.2131C499.144 67.3088 499.091 67.4385 499.091 67.5737V107.454C499.091 107.536 499.124 107.615 499.182 107.673C499.24 107.731 499.319 107.764 499.401 107.764H551.761C552.053 107.764 552.333 107.88 552.539 108.086C552.745 108.292 552.861 108.572 552.861 108.864V167.804C552.861 168.05 552.763 168.287 552.589 168.461C552.415 168.636 552.178 168.734 551.931 168.734H499.541C499.43 168.734 499.323 168.778 499.244 168.857C499.166 168.936 499.121 169.042 499.121 169.154V216.724C499.121 216.806 499.153 216.885 499.209 216.943C499.265 217.001 499.342 217.034 499.421 217.034Z" fill="#9CFF3F"/>
<path d="M499.421 217.034C499.342 217.034 499.265 217.001 499.209 216.943C499.153 216.885 499.121 216.806 499.121 216.724V169.154C499.121 169.042 499.166 168.936 499.244 168.857C499.323 168.778 499.43 168.734 499.541 168.734H551.931C552.178 168.734 552.415 168.636 552.589 168.461C552.763 168.287 552.861 168.05 552.861 167.804V108.864C552.861 108.572 552.745 108.292 552.539 108.086C552.333 107.88 552.053 107.764 551.761 107.764H499.401C499.319 107.764 499.24 107.731 499.182 107.673C499.124 107.615 499.091 107.536 499.091 107.454V67.5737C499.091 67.4385 499.144 67.3088 499.238 67.2131C499.332 67.1175 499.459 67.0638 499.591 67.0638H558.751C559.088 67.0638 559.411 66.931 559.649 66.6947C559.888 66.4584 560.021 66.1379 560.021 65.8037V6.41375C560.021 6.06366 559.881 5.72792 559.632 5.48037C559.382 5.23282 559.044 5.09375 558.691 5.09375H433.021C432.699 5.09371 432.389 5.22055 432.159 5.44691C431.928 5.67327 431.797 5.98101 431.791 6.30375C431.691 12.2704 431.641 17.7204 431.641 22.6537C431.648 109 431.638 193.25 431.611 275.404C431.611 276.85 432.001 277.96 432.781 278.734C432.876 278.829 432.99 278.904 433.115 278.956C433.24 279.007 433.375 279.034 433.511 279.034C446.311 278.904 460.891 278.324 474.611 278.904C478.645 279.077 483.145 279.14 488.111 279.094C515.111 278.854 537.945 278.817 556.611 278.984C558.845 279.004 560.325 278.86 561.051 278.554C561.202 278.492 561.331 278.386 561.421 278.249C561.512 278.112 561.561 277.95 561.561 277.784V218.444C561.561 218.259 561.525 218.075 561.454 217.904C561.383 217.733 561.279 217.578 561.148 217.447C561.017 217.316 560.862 217.212 560.691 217.141C560.52 217.07 560.336 217.034 560.151 217.034H499.421Z" stroke="#FFB8DF" stroke-linejoin="round"/>
<path d="M986.481 5.07324H922.041C921.223 5.07324 920.561 5.73586 920.561 6.55325V277.413C920.561 278.231 921.223 278.893 922.041 278.893H986.481C987.298 278.893 987.961 278.231 987.961 277.413V6.55325C987.961 5.73586 987.298 5.07324 986.481 5.07324Z" fill="#9CFF3F"/>
<path d="M318.1 181.813C317.952 181.813 317.809 181.872 317.704 181.977C317.599 182.082 317.54 182.225 317.54 182.373V277.663C317.54 277.983 317.415 278.291 317.19 278.519C316.966 278.747 316.661 278.878 316.34 278.883C301.18 279.253 285.85 278.533 271.53 278.743C262.344 278.883 255.944 278.94 252.33 278.913C250.897 278.907 250.1 278.393 249.94 277.373C249.37 273.793 249.55 270.223 249.55 264.403C249.57 120.443 249.587 36.5265 249.6 12.6532C249.6 10.9132 249.697 8.72653 249.89 6.0932C249.91 5.8572 250.017 5.63716 250.189 5.47622C250.361 5.31527 250.586 5.22504 250.82 5.2232C272.86 5.06986 296.207 5.04319 320.86 5.14319C340.75 5.22319 361.3 8.45319 378.7 18.4932C412.97 38.2732 422.87 78.7332 416.26 115.843C412.88 134.813 403.46 151.823 388.37 163.923C388.273 164.004 388.2 164.11 388.161 164.229C388.122 164.348 388.118 164.474 388.15 164.593C392.13 178.407 396.09 191.237 400.03 203.083C407.24 224.763 415.42 250.223 422.87 272.633C423.377 274.153 423.62 275.827 423.6 277.653C423.598 277.84 423.534 278.021 423.419 278.169C423.303 278.316 423.142 278.423 422.96 278.473C421.454 278.9 420.15 279.103 419.05 279.083C402.617 278.75 386.47 278.75 370.61 279.083C364.59 279.203 359.677 279.17 355.87 278.983C353.7 278.873 352.6 279.053 351.84 276.533C348.747 266.367 346.854 259.817 346.16 256.883C340.4 232.543 334.77 207.743 329.27 182.483C329.227 182.293 329.121 182.123 328.968 182.001C328.815 181.879 328.626 181.813 328.43 181.813H318.1ZM317.471 65.243V127.463C317.471 127.837 317.619 128.196 317.884 128.46C318.148 128.724 318.507 128.873 318.881 128.873H322.121C329.311 128.873 336.206 125.808 341.29 120.353C346.374 114.897 349.231 107.498 349.231 99.783V92.923C349.231 85.2079 346.374 77.8087 341.29 72.3533C336.206 66.8978 329.311 63.833 322.121 63.833H318.881C318.507 63.833 318.148 63.9816 317.884 64.246C317.619 64.5104 317.471 64.8691 317.471 65.243Z" fill="#9CFF3F"/>
<path d="M837.07 278.623C847.76 278.623 858.92 279.343 869.18 278.963C869.604 278.948 870.006 278.768 870.301 278.462C870.596 278.157 870.76 277.748 870.76 277.323V67.5434C870.76 67.44 870.802 67.3408 870.877 67.2677C870.952 67.1945 871.054 67.1535 871.16 67.1535H909.9C910.049 67.1535 910.197 67.1239 910.335 67.0665C910.472 67.0091 910.597 66.9249 910.702 66.8189C910.807 66.713 910.89 66.5872 910.947 66.449C911.003 66.3107 911.031 66.1627 911.03 66.0135L910.7 5.88345C910.7 5.7828 910.68 5.68314 910.641 5.59028C910.602 5.49741 910.545 5.41319 910.474 5.34248C910.402 5.27178 910.317 5.216 910.224 5.1784C910.13 5.1408 910.03 5.12213 909.93 5.12345C909.756 5.11678 885.45 5.12012 837.01 5.13345C788.57 5.14012 764.263 5.14678 764.09 5.15345C763.989 5.15212 763.889 5.1708 763.796 5.2084C763.703 5.246 763.618 5.30178 763.546 5.37248C763.474 5.44319 763.417 5.52742 763.379 5.62028C763.34 5.71315 763.32 5.8128 763.32 5.91345L763.01 66.0434C763.008 66.1935 763.037 66.3424 763.094 66.4813C763.151 66.6202 763.235 66.7464 763.341 66.8525C763.447 66.9587 763.573 67.0426 763.712 67.0994C763.851 67.1562 764 67.1848 764.15 67.1834L802.89 67.1634C802.996 67.1634 803.098 67.2045 803.173 67.2777C803.248 67.3508 803.29 67.45 803.29 67.5534L803.37 277.333C803.37 277.758 803.534 278.166 803.829 278.472C804.123 278.778 804.525 278.958 804.95 278.973C815.21 279.353 826.37 278.623 837.07 278.623Z" fill="#FFB8DF"/>
<path d="M837.012 5.13345C885.452 5.12012 909.758 5.11678 909.932 5.12345C910.032 5.12213 910.132 5.1408 910.226 5.1784C910.319 5.216 910.404 5.27178 910.476 5.34248C910.547 5.41319 910.604 5.49741 910.643 5.59028C910.682 5.68314 910.702 5.7828 910.702 5.88345L911.032 66.0135C911.033 66.1627 911.005 66.3107 910.949 66.449C910.892 66.5872 910.809 66.713 910.704 66.8189C910.599 66.9249 910.474 67.0091 910.336 67.0665C910.199 67.1239 910.051 67.1535 909.902 67.1535H871.162C871.056 67.1535 870.954 67.1945 870.879 67.2677C870.804 67.3408 870.762 67.44 870.762 67.5434V277.323C870.762 277.748 870.597 278.157 870.303 278.462C870.008 278.768 869.606 278.948 869.182 278.963C858.922 279.343 847.762 278.623 837.072 278.623C826.372 278.623 815.212 279.353 804.952 278.973C804.527 278.958 804.125 278.778 803.831 278.472C803.536 278.166 803.371 277.758 803.372 277.333L803.292 67.5534C803.292 67.45 803.25 67.3508 803.175 67.2777C803.1 67.2045 802.998 67.1634 802.892 67.1634L764.152 67.1834C764.002 67.1848 763.853 67.1562 763.714 67.0994C763.575 67.0426 763.449 66.9587 763.343 66.8525C763.237 66.7464 763.153 66.6202 763.096 66.4813C763.039 66.3424 763.01 66.1935 763.012 66.0434L763.322 5.91345C763.322 5.8128 763.342 5.71315 763.381 5.62028C763.419 5.52742 763.476 5.44319 763.548 5.37248C763.619 5.30178 763.704 5.246 763.798 5.2084C763.891 5.1708 763.991 5.15212 764.092 5.15345C764.265 5.14678 788.572 5.14012 837.012 5.13345Z" fill="#FFB8DF"/>
<path d="M1312.7 167.934C1312.7 168.13 1312.62 168.318 1312.48 168.457C1312.35 168.596 1312.16 168.674 1311.96 168.674H1259C1258.88 168.674 1258.76 168.723 1258.68 168.811C1258.59 168.899 1258.54 169.019 1258.54 169.144V216.624C1258.54 216.732 1258.58 216.837 1258.66 216.913C1258.74 216.99 1258.84 217.034 1258.95 217.034H1320.75C1320.9 217.034 1321.04 217.093 1321.14 217.198C1321.24 217.303 1321.3 217.445 1321.3 217.594V277.904C1321.3 278.193 1321.19 278.47 1320.98 278.674C1320.78 278.879 1320.5 278.994 1320.21 278.994H1192.28C1191.95 278.994 1191.62 278.872 1191.37 278.652C1191.12 278.431 1190.95 278.126 1190.91 277.794C1190.74 276.534 1190.66 275.487 1190.65 274.654C1190.64 262.014 1190.63 175.097 1190.63 13.9035C1190.63 11.4635 1190.75 8.85019 1190.99 6.06353C1191.01 5.80107 1191.13 5.55668 1191.33 5.37886C1191.52 5.20103 1191.77 5.10275 1192.03 5.10352H1318.8C1319.03 5.10352 1319.24 5.19308 1319.4 5.35248C1319.56 5.51189 1319.65 5.72809 1319.65 5.95353V66.2235C1319.65 66.4384 1319.56 66.6444 1319.41 66.7963C1319.26 66.9482 1319.05 67.0335 1318.83 67.0335H1258.94C1258.89 67.0335 1258.83 67.0444 1258.78 67.0655C1258.73 67.0866 1258.68 67.1175 1258.64 67.1565C1258.6 67.1955 1258.57 67.2418 1258.55 67.2928C1258.53 67.3437 1258.52 67.3984 1258.52 67.4535V107.234C1258.52 107.382 1258.58 107.524 1258.68 107.63C1258.79 107.735 1258.92 107.794 1259.07 107.794H1311.75C1312 107.794 1312.24 107.894 1312.42 108.072C1312.6 108.25 1312.7 108.492 1312.7 108.744V167.934Z" fill="#9CFF3F"/>
<path d="M1511.49 165.151C1498.24 166.531 1491.17 173.571 1496.2 187.401C1496.66 188.674 1498.59 193.424 1501.97 201.651C1502.82 203.697 1504.02 207.654 1505.57 213.521C1508.01 222.734 1508.7 231.794 1507.64 240.701C1506.15 253.191 1498.7 266.171 1488.03 273.341C1479.06 279.361 1469.43 282.377 1459.15 282.391C1449.21 282.404 1440.55 280.127 1433.17 275.561C1415.22 264.471 1408.75 243.241 1408.59 222.931C1408.48 208.777 1409.67 194.781 1412.15 180.941C1416.52 156.661 1422.69 133.401 1430.67 111.161C1439.09 87.6706 1450.46 64.1306 1464.72 43.7406C1468.17 38.8206 1472.72 33.3706 1478.37 27.3906C1495.84 8.93059 1519.87 -4.09942 1546.13 1.29058C1556.83 3.49058 1565.87 9.07059 1573.66 17.8206C1581.44 26.5473 1587.7 36.6572 1592.45 48.1506C1595.89 56.4639 1598.47 63.1039 1600.17 68.0706C1602.54 74.9706 1603.6 81.9306 1605.54 89.0406C1606.25 91.6406 1606.9 94.4572 1607.49 97.4906C1613.06 125.824 1615.86 153.307 1615.88 179.941C1615.9 193.421 1614.65 207.457 1612.14 222.051C1610.1 233.931 1606.45 245.231 1601.3 254.461C1597.69 260.941 1592.6 266.424 1586.04 270.911C1578.77 275.891 1570.72 277.051 1561.81 276.541C1550.75 275.907 1541.55 271.201 1534.21 262.421C1522.88 248.861 1520.92 227.851 1524.92 211.451C1527.34 201.521 1529.03 196.581 1532.29 186.031C1533.15 183.251 1533.48 180.017 1533.26 176.331C1532.66 165.831 1519.65 164.301 1511.49 165.151ZM1493.39 108.111C1492.88 116.361 1496.57 121.921 1504.7 122.921C1512.7 123.901 1521.41 121.051 1527.77 116.541C1538.67 108.791 1541.72 90.5706 1540.76 78.0806C1539.79 65.4706 1531.37 56.9506 1518.59 63.9006C1514.7 66.0206 1511.06 69.3706 1507.66 73.9506C1499.84 84.4806 1494.16 95.4606 1493.39 108.111Z" fill="#F5F8FA"/>
<path d="M1700.53 5.78957C1700.53 5.39705 1700.37 5.02061 1700.09 4.74306C1699.82 4.4655 1699.44 4.30957 1699.05 4.30957H1634.61C1634.21 4.30957 1633.84 4.4655 1633.56 4.74306C1633.28 5.02061 1633.13 5.39705 1633.13 5.78957V276.65C1633.13 277.042 1633.28 277.419 1633.56 277.696C1633.84 277.974 1634.21 278.13 1634.61 278.13H1699.05C1699.44 278.13 1699.82 277.974 1700.09 277.696C1700.37 277.419 1700.53 277.042 1700.53 276.65V5.78957Z" fill="#9CFF3F"/>
<path d="M1699.05 4.30957H1634.61C1633.79 4.30957 1633.13 4.97219 1633.13 5.78957V276.65C1633.13 277.467 1633.79 278.13 1634.61 278.13H1699.05C1699.86 278.13 1700.53 277.467 1700.53 276.65V5.78957C1700.53 4.97219 1699.86 4.30957 1699.05 4.30957Z" fill="#9CFF3F"/>
</svg>
