<svg width="2386" height="285" viewBox="0 0 2386 285" fill="none" xmlns="http://www.w3.org/2000/svg">
<mask id="mask0_4327_587" style="mask-type:alpha" maskUnits="userSpaceOnUse" x="1688" y="1" width="308" height="282">
<rect x="1688.89" y="1.1582" width="306.928" height="281.69" fill="#D9D9D9"/>
</mask>
<g mask="url(#mask0_4327_587)">
<path d="M1718.07 262.775C1694.3 236.473 1697.96 121.865 1770.75 56.0776C1843.56 -9.71722 1951.14 -9.31019 1981.71 24.5146C2005.55 50.8962 1741.91 289.156 1718.07 262.775Z" fill="#E1E8ED"/>
<path d="M1718.05 262.749L1981.69 24.4886C2005.52 50.8622 2001.8 165.398 1929 231.186C1856.21 296.974 1741.89 289.13 1718.05 262.749Z" fill="#E1E8ED"/>
<path d="M1727.63 254.084C1706.74 230.966 1712.82 127.66 1780.32 66.6602C1847.83 5.65369 1945.25 3.4458 1972.1 33.1549C1993.04 56.3363 1986.91 159.557 1919.41 220.563C1851.92 281.571 1748.58 277.265 1727.63 254.084Z" fill="#F5F8FA"/>
<path d="M1788.94 76.3445C1752.86 108.95 1750.85 165.528 1784.46 202.714C1818.06 239.9 1874.55 243.613 1910.63 211.007C1946.71 178.401 1948.72 121.824 1915.11 84.6376C1881.51 47.4516 1825.02 43.7387 1788.94 76.3445Z" fill="#8B5E3C"/>
<path d="M1815.95 106.223C1795.87 124.373 1794.76 155.866 1813.46 176.565C1832.17 197.264 1863.61 199.33 1883.7 181.181C1903.78 163.031 1904.89 131.539 1886.19 110.84C1867.48 90.1407 1836.04 88.074 1815.95 106.223Z" fill="#292F33"/>
<path d="M1880.31 130.567C1871.78 138.277 1871.3 151.655 1879.25 160.449C1887.2 169.242 1900.55 170.12 1909.09 162.41C1917.62 154.699 1918.09 141.321 1910.14 132.528C1902.2 123.735 1888.84 122.857 1880.31 130.567Z" fill="#F5F8FA"/>
</g>
<path d="M108.621 14.9876C136.113 1.38822 170.672 -4.86355 200.534 4.38699C207.412 6.51534 213.474 9.475 218.706 13.2727C232.368 23.1816 240.207 37.0401 242.224 54.76C244.045 70.8191 240.439 89.6279 230.11 102.498C216.69 119.217 199.08 127.142 177.383 126.25L176.347 126.201C165.376 125.616 155.953 121.711 148.122 114.488L148.121 114.487C145.857 112.393 143.832 109.195 142.012 104.979C139.348 98.8219 139.362 92.5993 140.527 86.5628C141.688 80.5527 144.009 74.6358 146.01 69.1214C146.206 68.5636 146.423 67.2394 146.624 65.012C146.784 63.251 146.455 61.6772 145.719 60.5296C145 59.4107 143.854 58.6268 142.188 58.4573C138.06 58.0339 134.228 59.4447 130.696 61.8089C127.157 64.1782 123.984 67.4616 121.206 70.6673L121.205 70.6682C116.192 76.4428 112.095 82.0786 108.905 87.5745L108.904 87.5755C94.1557 112.949 84.3512 139.681 79.4854 167.774C78.5365 173.254 77.7378 181.072 79.0723 187.774C79.738 191.117 80.9222 194.117 82.8232 196.409C84.7069 198.681 87.3356 200.311 91.0117 200.874C98.2987 201.989 104.682 198.712 109.929 193.691C115.354 188.496 120.824 181.901 126.336 173.896L126.772 173.278C129.074 170.083 133.191 165.37 139.085 159.164C145.758 152.147 153.511 146.575 162.337 142.456C173.833 137.093 188.051 135.507 200.782 138.542C213.531 141.582 224.859 149.283 230.383 162.538C235.687 175.274 233.249 191.581 227.533 203.631C220.519 218.418 209.39 231.582 196.909 242.533L196.91 242.534C184.944 253.04 171.862 261.739 157.667 268.632C138.252 278.058 117.657 283.325 95.8906 284.432C74.8722 285.499 55.0941 281.715 39 272.264C23.1391 262.95 10.9152 248.165 4.62403 227.251L4.32911 226.25C1.53413 216.575 0.0913652 206.854 0.00391006 197.088L3.80589e-06 196.143C-0.00995805 146.457 19.5369 97.2005 51.6494 59.5735C67.4005 41.1146 85.9582 26.4681 107.317 15.6409L108.621 14.9876Z" fill="#9CFF3F"/>
<path d="M1076.75 134.523C1075.01 150.213 1073.76 157.803 1073.98 170.333C1074.04 174.353 1074.59 180.223 1077.09 182.853C1083.47 189.563 1093.09 179.623 1096.07 174.623C1108.68 153.463 1113.73 129.253 1106.09 106.163C1104.33 100.836 1101.71 94.1564 1098.22 86.1231C1097.04 83.4031 1095.89 79.2631 1095.19 77.0931C1091.02 64.2831 1089.64 50.8431 1092.95 38.2131C1096.53 24.5431 1102.56 13.6731 1115.3 6.52305C1124.38 1.43305 1134.89 0.373052 1145.33 1.65305C1162.53 3.75305 1175.03 17.923 1178.71 34.163C1180.89 43.7964 1181.76 54.7931 1181.31 67.1531C1180.74 83.0531 1178.29 100.78 1173.97 120.333C1169.32 141.433 1162.78 163.306 1154.35 185.953C1147.5 204.386 1139.2 222.49 1129.46 240.263C1124.21 249.863 1118.29 258.523 1111.71 266.243C1104.47 274.743 1094.2 282.253 1083.02 282.793C1074.72 283.183 1067.55 281.573 1060.74 276.183C1054.26 271.063 1049.02 264.713 1045.01 257.133C1038.97 245.7 1033.41 231.89 1028.32 215.703C1021.12 192.783 1016.8 173.033 1011.28 147.073C1006.01 122.226 1001.88 95.7564 998.891 67.663C997.724 56.6764 998.334 45.5297 1000.72 34.2231C1002.67 25.0331 1005.55 17.8831 1012.62 11.4031C1016.86 7.51638 1021.7 5.03972 1027.13 3.97305C1043.28 0.803051 1058.43 6.00305 1066.28 21.3031C1071.31 31.1097 1074.81 42.1131 1076.77 54.3131C1080.98 80.4331 1079.77 107.363 1076.75 134.523Z" fill="#9CFF3F"/>
<path d="M669.931 166.354C656.681 167.734 649.611 174.774 654.641 188.604C655.101 189.877 657.024 194.627 660.411 202.854C661.258 204.9 662.458 208.857 664.011 214.724C666.451 223.937 667.141 232.997 666.081 241.904C664.591 254.394 657.141 267.374 646.471 274.544C637.498 280.564 627.871 283.58 617.591 283.594C607.651 283.607 598.991 281.33 591.611 276.764C573.661 265.674 567.191 244.444 567.031 224.134C566.918 209.98 568.104 195.984 570.591 182.144C574.958 157.864 581.131 134.604 589.111 112.364C597.531 88.8737 608.901 65.3337 623.161 44.9437C626.608 40.0237 631.158 34.5737 636.811 28.5937C654.281 10.1337 678.311 -2.89629 704.571 2.49371C715.271 4.69371 724.311 10.2737 732.101 19.0237C739.874 27.7504 746.138 37.8604 750.891 49.3537C754.331 57.667 756.904 64.307 758.611 69.2737C760.981 76.1737 762.041 83.1337 763.981 90.2437C764.688 92.8437 765.338 95.6604 765.931 98.6937C771.498 127.027 774.294 154.51 774.321 181.144C774.334 194.624 773.088 208.66 770.581 223.254C768.541 235.134 764.891 246.434 759.741 255.664C756.128 262.144 751.041 267.627 744.481 272.114C737.211 277.094 729.161 278.254 720.251 277.744C709.191 277.11 699.991 272.404 692.651 263.624C681.321 250.064 679.361 229.054 683.361 212.654C685.781 202.724 687.471 197.784 690.731 187.234C691.591 184.454 691.914 181.22 691.701 177.534C691.101 167.034 678.091 165.504 669.931 166.354ZM651.831 109.314C651.321 117.564 655.011 123.124 663.141 124.124C671.141 125.104 679.851 122.254 686.211 117.744C697.111 109.994 700.161 91.7737 699.201 79.2837C698.231 66.6737 689.811 58.1537 677.031 65.1037C673.138 67.2237 669.494 70.5737 666.101 75.1537C658.281 85.6837 652.601 96.6637 651.831 109.314Z" fill="#F5F8FA"/>
<path d="M2257.47 105.011C2257.63 104.878 2257.74 104.751 2257.78 104.631C2259.3 100.345 2262.79 91.078 2268.25 76.8313C2272.61 65.4913 2277.46 54.3414 2282.8 43.3814C2285.92 36.988 2289.77 30.6747 2294.34 24.4414C2300.84 15.5614 2307.96 9.89134 2317.31 5.98134C2324.86 2.83134 2335.93 2.96134 2343.23 6.76134C2348.87 9.70134 2353.14 13.588 2356.04 18.4213C2362.88 29.7913 2362.4 42.4813 2360.23 55.5513C2359.3 61.2047 2357.44 67.4247 2354.64 74.2113C2346.14 94.838 2333.96 112.658 2318.12 127.671C2312.61 132.901 2306.64 136.661 2300.37 140.461C2299.58 140.941 2298.81 141.491 2298.07 142.111C2297.96 142.202 2297.88 142.317 2297.82 142.446C2297.76 142.576 2297.73 142.717 2297.74 142.859C2297.74 143.001 2297.78 143.139 2297.85 143.265C2297.91 143.39 2298.01 143.498 2298.12 143.581C2308.84 151.288 2317.92 160.871 2325.38 172.331C2340.77 195.991 2353.52 220.151 2366.99 243.151C2367.45 243.938 2373.3 254.418 2384.53 274.591C2385.61 276.541 2386.98 280.781 2383.25 281.441C2381.55 281.741 2380.09 281.888 2378.88 281.881C2343.54 281.735 2322.6 281.715 2316.08 281.821C2310.54 281.908 2306.42 279.435 2303.7 274.401C2293.56 255.575 2286.2 240.788 2281.62 230.041C2280.06 226.388 2276.37 217.671 2270.55 203.891C2265.97 193.051 2262.1 182.691 2257.84 171.691C2257.82 171.625 2257.77 171.569 2257.71 171.535C2257.65 171.501 2257.57 171.49 2257.5 171.505C2257.43 171.519 2257.37 171.558 2257.33 171.614C2257.28 171.67 2257.26 171.74 2257.26 171.811C2257.56 184.318 2257.71 195.291 2257.7 204.731C2257.68 244.565 2257.63 268.815 2257.53 277.481C2257.52 278.808 2257.48 279.785 2257.41 280.411C2257.38 280.797 2257.2 281.155 2256.91 281.416C2256.62 281.676 2256.24 281.821 2255.85 281.821H2191.33C2191.1 281.821 2190.86 281.775 2190.64 281.684C2190.42 281.593 2190.22 281.459 2190.05 281.291C2189.88 281.123 2189.74 280.924 2189.65 280.704C2189.56 280.484 2189.51 280.249 2189.51 280.011C2189.52 258.358 2189.52 168.875 2189.51 11.5614C2189.51 11.4147 2189.48 10.878 2189.41 9.95134C2189.29 8.36468 2190.02 7.56802 2191.62 7.56136C2218.94 7.46802 2239.99 7.49137 2254.75 7.63137C2255.37 7.63803 2255.9 7.67803 2256.36 7.75136C2256.7 7.80153 2257 7.96927 2257.22 8.22423C2257.44 8.47919 2257.56 8.80451 2257.56 9.14134C2257.61 21.528 2257.65 33.9113 2257.69 46.2913C2257.75 64.7713 2257.24 77.0814 2257.75 93.0614C2257.86 96.4314 2257.34 100.301 2256.99 104.761C2256.99 104.82 2257 104.878 2257.03 104.93C2257.05 104.982 2257.1 105.024 2257.15 105.051C2257.2 105.078 2257.26 105.089 2257.32 105.082C2257.38 105.075 2257.43 105.05 2257.47 105.011Z" fill="#66DDFF"/>
<path d="M2257.47 105.011C2257.43 105.05 2257.38 105.075 2257.32 105.082C2257.26 105.089 2257.2 105.078 2257.15 105.051C2257.1 105.024 2257.05 104.982 2257.03 104.93C2257 104.878 2256.99 104.82 2256.99 104.761C2257.34 100.301 2257.86 96.4314 2257.75 93.0614C2257.24 77.0814 2257.75 64.7713 2257.69 46.2913C2257.65 33.9113 2257.61 21.528 2257.56 9.14134C2257.56 8.80451 2257.44 8.47919 2257.22 8.22423C2257 7.96927 2256.7 7.80153 2256.36 7.75136C2255.9 7.67803 2255.37 7.63803 2254.75 7.63137C2239.99 7.49137 2218.94 7.46802 2191.62 7.56136C2190.02 7.56802 2189.29 8.36468 2189.41 9.95134C2189.48 10.878 2189.51 11.4147 2189.51 11.5614C2189.52 168.875 2189.52 258.358 2189.51 280.011C2189.51 280.249 2189.56 280.484 2189.65 280.704C2189.74 280.924 2189.88 281.123 2190.05 281.291C2190.22 281.459 2190.42 281.593 2190.64 281.684C2190.86 281.775 2191.1 281.821 2191.33 281.821H2255.85C2256.24 281.821 2256.62 281.676 2256.91 281.416C2257.2 281.155 2257.38 280.797 2257.41 280.411C2257.48 279.785 2257.52 278.808 2257.53 277.481C2257.63 268.815 2257.68 244.565 2257.7 204.731C2257.71 195.291 2257.56 184.318 2257.26 171.811C2257.26 171.74 2257.28 171.67 2257.33 171.614C2257.37 171.558 2257.43 171.519 2257.5 171.505C2257.57 171.49 2257.65 171.501 2257.71 171.535C2257.77 171.569 2257.82 171.625 2257.84 171.691C2262.1 182.691 2265.97 193.051 2270.55 203.891C2276.37 217.671 2280.06 226.388 2281.62 230.041C2286.2 240.788 2293.56 255.575 2303.7 274.401C2306.42 279.435 2310.54 281.908 2316.08 281.821C2322.6 281.715 2343.54 281.735 2378.88 281.881C2380.09 281.888 2381.55 281.741 2383.25 281.441C2386.98 280.781 2385.61 276.541 2384.53 274.591C2373.3 254.418 2367.45 243.938 2366.99 243.151C2353.52 220.151 2340.77 195.991 2325.38 172.331C2317.92 160.871 2308.84 151.288 2298.12 143.581C2298.01 143.498 2297.91 143.39 2297.85 143.265C2297.78 143.139 2297.74 143.001 2297.74 142.859C2297.73 142.717 2297.76 142.576 2297.82 142.446C2297.88 142.317 2297.96 142.202 2298.07 142.111C2298.81 141.491 2299.58 140.941 2300.37 140.461C2306.64 136.661 2312.61 132.901 2318.12 127.671C2333.96 112.658 2346.14 94.838 2354.64 74.2113C2357.44 67.4247 2359.3 61.2047 2360.23 55.5513C2362.4 42.4813 2362.88 29.7913 2356.04 18.4213C2353.14 13.588 2348.87 9.70134 2343.23 6.76134C2335.93 2.96134 2324.86 2.83134 2317.31 5.98134C2307.96 9.89134 2300.84 15.5614 2294.34 24.4414C2289.77 30.6747 2285.92 36.988 2282.8 43.3814C2277.46 54.3414 2272.61 65.4913 2268.25 76.8313C2262.79 91.078 2259.3 100.345 2257.78 104.631C2257.74 104.751 2257.63 104.878 2257.47 105.011Z" stroke="#66DDFF" stroke-linejoin="round"/>
<path d="M1472.2 195.151C1472.17 195.074 1472.11 195.008 1472.04 194.96C1471.97 194.913 1471.89 194.887 1471.81 194.885C1471.72 194.882 1471.64 194.905 1471.57 194.948C1471.49 194.992 1471.44 195.056 1471.4 195.131C1466.5 204.958 1460.86 215.208 1454.49 225.881C1447.41 237.735 1438.96 249.018 1429.13 259.731C1417.69 272.221 1402.41 281.631 1384.87 280.031C1370.46 278.711 1361.3 267.521 1359.33 253.741C1357.01 237.591 1360.36 219.871 1365.5 203.851C1370.56 188.058 1376.89 172.391 1384.5 156.851C1397.73 129.811 1413.24 104.081 1431.04 79.6615C1440.79 66.2815 1451.23 53.7248 1462.36 41.9915C1474.35 29.3515 1488.08 17.2515 1503.89 10.0115C1516.27 4.33147 1533.64 3.37148 1542.08 16.4915C1547.18 24.4315 1546.17 36.9215 1543.57 45.9615C1540.96 55.0748 1537.11 63.7281 1532.04 71.9215C1526.46 80.9315 1517.69 93.0715 1509.56 102.581C1499.23 114.641 1490.9 124.721 1479.54 135.411C1476.27 138.485 1473.79 141.381 1472.09 144.101C1471.95 144.318 1471.89 144.571 1471.89 144.826C1471.9 145.082 1471.99 145.328 1472.14 145.535C1472.29 145.742 1472.5 145.898 1472.74 145.985C1472.98 146.072 1473.24 146.084 1473.49 146.021C1474.47 145.775 1475.47 145.301 1476.48 144.601C1479.71 142.375 1483.35 139.508 1487.38 136.001C1496.87 127.761 1507.59 117.881 1516.91 107.531C1525.36 98.1448 1530.76 91.9582 1533.11 88.9715C1539.74 80.5648 1544.33 74.7748 1546.87 71.6015C1560.06 55.1315 1572.17 34.8315 1589.38 23.0115C1600.41 15.4415 1615.42 13.0515 1626.64 21.8115C1633.82 27.4115 1636.79 39.1715 1637.07 48.0615C1637.45 60.0748 1636.39 72.1415 1633.89 84.2615C1630.46 100.895 1625.87 117.071 1620.11 132.791C1616.31 143.145 1614.02 149.651 1613.23 152.311C1613.08 152.811 1613.04 153.131 1613.11 153.271C1613.2 153.453 1613.34 153.609 1613.51 153.726C1613.67 153.843 1613.87 153.918 1614.07 153.943C1614.27 153.969 1614.48 153.945 1614.67 153.873C1614.86 153.801 1615.03 153.684 1615.17 153.531C1617.3 151.118 1619.29 148.118 1621.14 144.531C1628.91 129.431 1635.01 113.101 1639.42 95.5415C1641.89 85.7215 1644.05 76.4615 1645.9 67.7615C1651.85 39.8415 1668.21 -2.18853 1705.5 6.14147C1714.54 8.16147 1721.83 15.5815 1726.13 23.9215C1727.74 27.0481 1728.97 31.1582 1729.81 36.2515C1731.38 45.7782 1731.8 54.9548 1731.07 63.7815C1729.96 77.0915 1727.65 91.4315 1723.64 105.521C1714.83 136.495 1701.9 165.825 1684.87 193.511C1682.05 198.091 1677.7 204.658 1671.83 213.211C1659.98 230.451 1647.12 245.421 1633.26 258.121C1628.13 262.815 1621.96 267.515 1614.73 272.221C1596.89 283.851 1570.19 285.831 1563.62 259.741C1561.37 250.828 1560.81 241.915 1561.92 233.001C1562.57 227.821 1563.31 218.951 1564.79 210.961C1567.52 196.128 1571.28 181.771 1576.06 167.891C1579.57 157.691 1582.14 152.351 1582.96 145.021C1582.98 144.899 1582.95 144.775 1582.89 144.669C1582.82 144.563 1582.72 144.481 1582.61 144.437C1582.49 144.393 1582.37 144.389 1582.25 144.427C1582.13 144.464 1582.03 144.539 1581.96 144.641C1579.73 147.781 1577.72 151.331 1575.91 155.291C1569.82 168.611 1563.61 182.171 1557.3 195.971C1550.96 209.831 1542.96 225.081 1536.25 236.641C1532.63 242.888 1528.16 249.581 1522.84 256.721C1519.06 261.801 1514.81 266.462 1510.1 270.702C1501.78 278.182 1489.46 282.681 1478.63 278.721C1467.44 274.621 1464.61 257.761 1464.89 247.471C1465.33 231.231 1468.88 212.571 1472.37 196.481C1472.46 196.048 1472.41 195.605 1472.2 195.151Z" fill="#9CFF3F"/>
<path d="M2074.61 184.711C2074.5 184.711 2074.39 184.757 2074.3 184.84C2074.22 184.922 2074.17 185.034 2074.17 185.151V280.051C2074.17 280.515 2073.99 280.96 2073.66 281.288C2073.34 281.616 2072.9 281.801 2072.43 281.801C2052.71 281.841 2031.36 281.847 2008.36 281.821C2006.52 281.814 2005.56 280.957 2005.49 279.251C2005.47 278.724 2005.46 275.804 2005.46 270.491C2005.44 219.164 2005.4 156.581 2005.34 82.7407C2005.33 62.6274 2005.33 52.1974 2005.34 51.4507C2005.55 35.5707 2004.91 22.3807 2005.75 8.72074C2005.77 8.43605 2005.89 8.16716 2006.09 7.9646C2006.29 7.76205 2006.56 7.63976 2006.84 7.62073C2008.94 7.4674 2011.03 7.40406 2013.13 7.43073C2026.79 7.59073 2046.37 7.60407 2071.88 7.47074C2080.64 7.42407 2088.27 7.72072 2094.75 8.36072C2108.03 9.66739 2120.19 13.0074 2131.24 18.3807C2148.13 26.5941 2160.3 39.2441 2167.75 56.3307C2176.32 75.9907 2177.47 99.5707 2172.97 120.161C2169.08 137.931 2160.25 154.741 2145.61 165.761C2145.48 165.866 2145.37 166.013 2145.32 166.181C2145.27 166.349 2145.26 166.53 2145.31 166.701C2155.25 199.511 2163.03 222.871 2179.3 273.331C2179.93 275.291 2180.33 277.871 2180.19 279.831C2180.18 280.059 2180.09 280.277 2179.95 280.457C2179.81 280.636 2179.62 280.77 2179.4 280.841C2177.75 281.374 2175.91 281.647 2173.89 281.661C2158.31 281.767 2138.31 281.817 2113.89 281.811C2108.49 281.811 2107.44 277.431 2106.32 273.051C2103.25 261.004 2100.48 249.374 2098.02 238.161C2095.72 227.707 2091.8 210.147 2086.24 185.481C2086.2 185.263 2086.07 185.068 2085.9 184.928C2085.72 184.788 2085.5 184.711 2085.27 184.711H2074.61ZM2073.89 66.7507L2074.23 130.291C2074.23 130.327 2074.24 130.364 2074.26 130.398C2074.27 130.432 2074.29 130.463 2074.32 130.489C2074.34 130.515 2074.37 130.535 2074.41 130.549C2074.44 130.564 2074.48 130.571 2074.51 130.571L2079.21 130.551C2086.31 130.513 2093.09 127.497 2098.08 122.165C2103.06 116.834 2105.84 109.623 2105.8 102.121L2105.76 94.6007C2105.75 90.8854 2105.03 87.2102 2103.67 83.7847C2102.31 80.3593 2100.32 77.2509 2097.83 74.6368C2095.33 72.0228 2092.37 69.9545 2089.12 68.5499C2085.87 67.1453 2082.39 66.432 2078.87 66.4507L2074.17 66.4707C2074.1 66.4707 2074.03 66.5002 2073.98 66.5527C2073.92 66.6052 2073.89 66.6765 2073.89 66.7507Z" fill="#9CFF3F"/>
<path d="M499.421 217.034H560.151C560.336 217.034 560.52 217.07 560.691 217.141C560.862 217.212 561.017 217.316 561.148 217.447C561.279 217.578 561.383 217.733 561.454 217.904C561.525 218.075 561.561 218.259 561.561 218.444V277.784C561.561 277.95 561.512 278.112 561.421 278.249C561.331 278.386 561.202 278.492 561.051 278.554C560.325 278.86 558.845 279.004 556.611 278.984C537.945 278.817 515.111 278.854 488.111 279.094C483.145 279.14 478.645 279.077 474.611 278.904C460.891 278.324 446.311 278.904 433.511 279.034C433.375 279.034 433.24 279.007 433.115 278.956C432.99 278.904 432.876 278.829 432.781 278.734C432.001 277.96 431.611 276.85 431.611 275.404C431.638 193.25 431.648 109 431.641 22.6537C431.641 17.7204 431.691 12.2704 431.791 6.30375C431.797 5.98101 431.928 5.67327 432.159 5.44691C432.389 5.22055 432.699 5.09371 433.021 5.09375H558.691C559.044 5.09375 559.382 5.23282 559.632 5.48037C559.881 5.72792 560.021 6.06366 560.021 6.41375V65.8037C560.021 66.1379 559.888 66.4584 559.649 66.6947C559.411 66.931 559.088 67.0638 558.751 67.0638H499.591C499.459 67.0638 499.332 67.1175 499.238 67.2131C499.144 67.3088 499.091 67.4385 499.091 67.5737V107.454C499.091 107.536 499.124 107.615 499.182 107.673C499.24 107.731 499.319 107.764 499.401 107.764H551.761C552.053 107.764 552.333 107.88 552.539 108.086C552.745 108.292 552.861 108.572 552.861 108.864V167.804C552.861 168.05 552.763 168.287 552.589 168.461C552.415 168.636 552.178 168.734 551.931 168.734H499.541C499.43 168.734 499.323 168.778 499.244 168.857C499.166 168.936 499.121 169.042 499.121 169.154V216.724C499.121 216.806 499.153 216.885 499.209 216.943C499.265 217.001 499.342 217.034 499.421 217.034Z" fill="#FFB8DF"/>
<path d="M499.421 217.034C499.342 217.034 499.265 217.001 499.209 216.943C499.153 216.885 499.121 216.806 499.121 216.724V169.154C499.121 169.042 499.166 168.936 499.244 168.857C499.323 168.778 499.43 168.734 499.541 168.734H551.931C552.178 168.734 552.415 168.636 552.589 168.461C552.763 168.287 552.861 168.05 552.861 167.804V108.864C552.861 108.572 552.745 108.292 552.539 108.086C552.333 107.88 552.053 107.764 551.761 107.764H499.401C499.319 107.764 499.24 107.731 499.182 107.673C499.124 107.615 499.091 107.536 499.091 107.454V67.5737C499.091 67.4385 499.144 67.3088 499.238 67.2131C499.332 67.1175 499.459 67.0638 499.591 67.0638H558.751C559.088 67.0638 559.411 66.931 559.649 66.6947C559.888 66.4584 560.021 66.1379 560.021 65.8037V6.41375C560.021 6.06366 559.881 5.72792 559.632 5.48037C559.382 5.23282 559.044 5.09375 558.691 5.09375H433.021C432.699 5.09371 432.389 5.22055 432.159 5.44691C431.928 5.67327 431.797 5.98101 431.791 6.30375C431.691 12.2704 431.641 17.7204 431.641 22.6537C431.648 109 431.638 193.25 431.611 275.404C431.611 276.85 432.001 277.96 432.781 278.734C432.876 278.829 432.99 278.904 433.115 278.956C433.24 279.007 433.375 279.034 433.511 279.034C446.311 278.904 460.891 278.324 474.611 278.904C478.645 279.077 483.145 279.14 488.111 279.094C515.111 278.854 537.945 278.817 556.611 278.984C558.845 279.004 560.325 278.86 561.051 278.554C561.202 278.492 561.331 278.386 561.421 278.249C561.512 278.112 561.561 277.95 561.561 277.784V218.444C561.561 218.259 561.525 218.075 561.454 217.904C561.383 217.733 561.279 217.578 561.148 217.447C561.017 217.316 560.862 217.212 560.691 217.141C560.52 217.07 560.336 217.034 560.151 217.034H499.421Z" stroke="#FFB8DF" stroke-linejoin="round"/>
<path d="M986.481 5.07324H922.041C921.223 5.07324 920.561 5.73586 920.561 6.55325V277.413C920.561 278.231 921.223 278.893 922.041 278.893H986.481C987.298 278.893 987.961 278.231 987.961 277.413V6.55325C987.961 5.73586 987.298 5.07324 986.481 5.07324Z" fill="#9CFF3F"/>
<path d="M318.1 181.813C317.952 181.813 317.809 181.872 317.704 181.977C317.599 182.082 317.54 182.225 317.54 182.373V277.663C317.54 277.983 317.415 278.291 317.19 278.519C316.966 278.747 316.661 278.878 316.34 278.883C301.18 279.253 285.85 278.533 271.53 278.743C262.344 278.883 255.944 278.94 252.33 278.913C250.897 278.907 250.1 278.393 249.94 277.373C249.37 273.793 249.55 270.223 249.55 264.403C249.57 120.443 249.587 36.5265 249.6 12.6532C249.6 10.9132 249.697 8.72653 249.89 6.0932C249.91 5.8572 250.017 5.63716 250.189 5.47622C250.361 5.31527 250.586 5.22504 250.82 5.2232C272.86 5.06986 296.207 5.04319 320.86 5.14319C340.75 5.22319 361.3 8.45319 378.7 18.4932C412.97 38.2732 422.87 78.7332 416.26 115.843C412.88 134.813 403.46 151.823 388.37 163.923C388.273 164.004 388.2 164.11 388.161 164.229C388.122 164.348 388.118 164.474 388.15 164.593C392.13 178.407 396.09 191.237 400.03 203.083C407.24 224.763 415.42 250.223 422.87 272.633C423.377 274.153 423.62 275.827 423.6 277.653C423.598 277.84 423.534 278.021 423.419 278.169C423.303 278.316 423.142 278.423 422.96 278.473C421.454 278.9 420.15 279.103 419.05 279.083C402.617 278.75 386.47 278.75 370.61 279.083C364.59 279.203 359.677 279.17 355.87 278.983C353.7 278.873 352.6 279.053 351.84 276.533C348.747 266.367 346.854 259.817 346.16 256.883C340.4 232.543 334.77 207.743 329.27 182.483C329.227 182.293 329.121 182.123 328.968 182.001C328.815 181.879 328.626 181.813 328.43 181.813H318.1ZM317.471 65.243V127.463C317.471 127.837 317.619 128.196 317.884 128.46C318.148 128.724 318.507 128.873 318.881 128.873H322.121C329.311 128.873 336.206 125.808 341.29 120.353C346.374 114.897 349.231 107.498 349.231 99.783V92.923C349.231 85.2079 346.374 77.8087 341.29 72.3533C336.206 66.8978 329.311 63.833 322.121 63.833H318.881C318.507 63.833 318.148 63.9816 317.884 64.246C317.619 64.5104 317.471 64.8691 317.471 65.243Z" fill="#9CFF3F"/>
<path d="M837.012 5.13345C885.452 5.12012 909.758 5.11678 909.932 5.12345C910.032 5.12213 910.132 5.1408 910.226 5.1784C910.319 5.216 910.404 5.27178 910.476 5.34248C910.547 5.41319 910.604 5.49741 910.643 5.59028C910.682 5.68314 910.702 5.7828 910.702 5.88345L911.032 66.0135C911.033 66.1627 911.005 66.3107 910.949 66.449C910.892 66.5872 910.809 66.713 910.704 66.8189C910.599 66.9249 910.474 67.0091 910.336 67.0665C910.199 67.1239 910.051 67.1535 909.902 67.1535H871.162C871.056 67.1535 870.954 67.1945 870.879 67.2677C870.804 67.3408 870.762 67.44 870.762 67.5434V277.323C870.762 277.748 870.597 278.157 870.303 278.462C870.008 278.768 869.606 278.948 869.182 278.963C858.922 279.343 847.762 278.623 837.072 278.623C826.372 278.623 815.212 279.353 804.952 278.973C804.527 278.958 804.125 278.778 803.831 278.472C803.536 278.166 803.371 277.758 803.372 277.333L803.292 67.5534C803.292 67.45 803.25 67.3508 803.175 67.2777C803.1 67.2045 802.998 67.1634 802.892 67.1634L764.152 67.1834C764.002 67.1848 763.853 67.1562 763.714 67.0994C763.575 67.0426 763.449 66.9587 763.343 66.8525C763.237 66.7464 763.153 66.6202 763.096 66.4813C763.039 66.3424 763.01 66.1935 763.012 66.0434L763.322 5.91345C763.322 5.8128 763.342 5.71315 763.381 5.62028C763.419 5.52742 763.476 5.44319 763.548 5.37248C763.619 5.30178 763.704 5.246 763.798 5.2084C763.891 5.1708 763.991 5.15212 764.092 5.15345C764.265 5.14678 788.572 5.14012 837.012 5.13345Z" fill="#9CFF3F"/>
<path d="M1312.7 167.934C1312.7 168.13 1312.62 168.318 1312.48 168.457C1312.35 168.596 1312.16 168.674 1311.96 168.674H1259C1258.88 168.674 1258.76 168.723 1258.68 168.811C1258.59 168.899 1258.54 169.019 1258.54 169.144V216.624C1258.54 216.732 1258.58 216.837 1258.66 216.913C1258.74 216.99 1258.84 217.034 1258.95 217.034H1320.75C1320.9 217.034 1321.04 217.093 1321.14 217.198C1321.24 217.303 1321.3 217.445 1321.3 217.594V277.904C1321.3 278.193 1321.19 278.47 1320.98 278.674C1320.78 278.879 1320.5 278.994 1320.21 278.994H1192.28C1191.95 278.994 1191.62 278.872 1191.37 278.652C1191.12 278.431 1190.95 278.126 1190.91 277.794C1190.74 276.534 1190.66 275.487 1190.65 274.654C1190.64 262.014 1190.63 175.097 1190.63 13.9035C1190.63 11.4635 1190.75 8.85019 1190.99 6.06353C1191.01 5.80107 1191.13 5.55668 1191.33 5.37886C1191.52 5.20103 1191.77 5.10275 1192.03 5.10352H1318.8C1319.03 5.10352 1319.24 5.19308 1319.4 5.35248C1319.56 5.51189 1319.65 5.72809 1319.65 5.95353V66.2235C1319.65 66.4384 1319.56 66.6444 1319.41 66.7963C1319.26 66.9482 1319.05 67.0335 1318.83 67.0335H1258.94C1258.89 67.0335 1258.83 67.0444 1258.78 67.0655C1258.73 67.0866 1258.68 67.1175 1258.64 67.1565C1258.6 67.1955 1258.57 67.2418 1258.55 67.2928C1258.53 67.3437 1258.52 67.3984 1258.52 67.4535V107.234C1258.52 107.382 1258.58 107.524 1258.68 107.63C1258.79 107.735 1258.92 107.794 1259.07 107.794H1311.75C1312 107.794 1312.24 107.894 1312.42 108.072C1312.6 108.25 1312.7 108.492 1312.7 108.744V167.934Z" fill="#9CFF3F"/>
</svg>
