<svg width="871" height="283" viewBox="0 0 871 283" fill="none" xmlns="http://www.w3.org/2000/svg">
<path d="M681.407 165.087C668.157 166.467 661.087 173.507 666.117 187.337C666.577 188.61 668.501 193.36 671.887 201.587C672.734 203.634 673.934 207.59 675.487 213.457C677.927 222.67 678.617 231.73 677.557 240.637C676.067 253.127 668.617 266.107 657.947 273.277C648.974 279.297 639.347 282.314 629.067 282.327C619.127 282.34 610.467 280.064 603.087 275.497C585.137 264.407 578.667 243.177 578.507 222.867C578.394 208.714 579.581 194.717 582.067 180.877C586.434 156.597 592.607 133.337 600.587 111.097C609.007 87.6071 620.377 64.0671 634.637 43.6771C638.084 38.7571 642.634 33.3071 648.287 27.3271C665.757 8.86711 689.787 -4.1629 716.047 1.2271C726.747 3.4271 735.787 9.00711 743.577 17.7571C751.351 26.4838 757.614 36.5938 762.367 48.0871C765.807 56.4004 768.381 63.0404 770.087 68.0071C772.457 74.9071 773.517 81.8671 775.457 88.9771C776.164 91.5771 776.814 94.3938 777.407 97.4271C782.974 125.76 785.771 153.244 785.797 179.877C785.811 193.357 784.564 207.394 782.057 221.987C780.017 233.867 776.367 245.167 771.217 254.397C767.604 260.877 762.517 266.36 755.957 270.847C748.687 275.827 740.637 276.987 731.727 276.477C720.667 275.844 711.467 271.137 704.127 262.357C692.797 248.797 690.837 227.787 694.837 211.387C697.257 201.457 698.947 196.517 702.207 185.967C703.067 183.187 703.391 179.954 703.177 176.267C702.577 165.767 689.567 164.237 681.407 165.087ZM663.307 108.047C662.797 116.297 666.487 121.857 674.617 122.857C682.617 123.837 691.327 120.987 697.687 116.477C708.587 108.727 711.637 90.5071 710.677 78.0171C709.707 65.4071 701.287 56.8871 688.507 63.8371C684.614 65.9571 680.971 69.3071 677.577 73.8871C669.757 84.4171 664.077 95.3971 663.307 108.047Z" fill="#F5F8FA"/>
<path d="M868.961 4.24609H804.521C803.704 4.24609 803.041 4.90872 803.041 5.7261V276.586C803.041 277.404 803.704 278.066 804.521 278.066H868.961C869.778 278.066 870.441 277.404 870.441 276.586V5.7261C870.441 4.90872 869.778 4.24609 868.961 4.24609Z" fill="#9CFF3F"/>
<path d="M456.751 135.997C461.271 137.323 464.219 138.129 467.999 139.791C470.836 141.039 472.794 141.929 473.872 142.461C484.924 147.89 493.813 155.684 500.538 165.844C501.037 166.599 502.179 168.749 503.965 172.294C506.267 176.857 507.938 181.67 508.977 186.731C511.569 199.351 511.753 212.064 509.528 224.869C507.94 234.007 504.696 242.299 499.799 249.744C496.371 254.952 492.206 259.549 487.306 263.536C482.48 267.457 477.142 270.63 471.292 273.055C464.973 275.668 458.425 277.574 451.649 278.775C442.186 280.447 432.712 281.292 423.227 281.31C388.028 281.385 350.518 281.392 310.699 281.333C310.599 281.333 310.504 281.293 310.433 281.222C310.363 281.152 310.323 281.056 310.323 280.956V261.968C310.323 261.723 310.414 261.485 310.578 261.301C312.33 259.352 314.681 257.162 316.222 254.886C318.486 251.544 320.278 248.778 321.598 246.586C324.617 241.582 326.574 235.817 328.129 229.841C330.785 219.624 329.965 207.955 325.437 198.293C322.149 191.275 317.275 185.585 310.816 181.222C310.653 181.111 310.52 180.963 310.428 180.79C310.335 180.616 310.287 180.423 310.287 180.227L310.31 129.995C310.31 129.564 310.371 129.135 310.493 128.723C310.55 128.531 311.279 126.29 312.679 121.999C319.425 101.358 321.513 78.0869 317.423 56.7648C315.909 48.872 313.853 42.0453 310.614 35.5322C310.428 35.158 310.332 34.7441 310.332 34.3227V1.25997C310.332 1.18869 310.36 1.12033 310.411 1.06992C310.461 1.01952 310.529 0.991204 310.601 0.991204C326.27 0.973286 361.151 0.928491 419.196 0.94193C432.446 0.946409 445.696 2.68443 458.001 7.27586C463.081 9.17216 468.064 11.8061 472.949 15.1776C483.966 22.7777 491.588 33.0655 495.817 46.041C499.92 58.6237 500.574 72.0755 498.778 85.3391C497.87 92.0404 496.059 98.2996 493.344 104.117C489.154 113.091 483.144 120.365 475.314 125.941C469.572 130.032 463.381 133.277 456.742 135.675C456.709 135.687 456.68 135.709 456.66 135.739C456.64 135.768 456.63 135.803 456.631 135.839C456.632 135.875 456.644 135.909 456.666 135.937C456.687 135.966 456.717 135.987 456.751 135.997ZM380.131 62.5656L380.292 109.376C380.292 109.4 380.301 109.422 380.318 109.439C380.335 109.456 380.358 109.465 380.381 109.465L406.416 109.376C409.478 109.365 412.509 108.786 415.334 107.671C418.16 106.556 420.725 104.928 422.883 102.878C425.042 100.829 426.751 98.3987 427.914 95.7268C429.076 93.0548 429.67 90.1933 429.66 87.3056L429.651 84.2954C429.641 81.4077 429.028 78.5503 427.847 75.8864C426.666 73.2226 424.939 70.8044 422.767 68.7699C420.594 66.7355 418.018 65.1246 415.185 64.0294C412.352 62.9341 409.317 62.3758 406.255 62.3864L380.22 62.476C380.196 62.476 380.174 62.4855 380.157 62.5023C380.14 62.5191 380.131 62.5419 380.131 62.5656ZM380.202 166.323C380.217 181.338 380.211 203.641 380.184 233.232C380.184 236.659 380.422 238.881 380.959 241.761C381.091 242.463 381.349 243.06 381.734 243.553C381.879 243.74 382.094 243.86 382.332 243.888C382.57 243.916 382.813 243.848 383.006 243.701C383.604 243.247 384.05 242.692 384.346 242.035C384.815 240.992 385.53 238.757 386.491 235.329C387.414 232.032 389.057 228.78 391.419 225.573C395.28 220.336 403.504 216.99 409.82 216.806C414.13 216.684 416.889 216.575 418.098 216.479C432.728 215.328 444.097 207.019 443.47 191.184C443.225 185.05 441.039 179.664 436.912 175.027C435.152 173.047 432.827 171.542 430.574 170.417C427.187 168.727 423.699 167.537 420.11 166.847C417.455 166.339 413.773 166.099 409.063 166.126C401.347 166.168 391.792 166.168 380.399 166.126C380.347 166.126 380.297 166.147 380.26 166.184C380.223 166.221 380.202 166.271 380.202 166.323Z" fill="#9CFF3F"/>
<path d="M246.673 151.08C246.346 147.383 242.243 147.789 239.873 149.146C237.723 150.378 235.782 151.806 234.05 153.429C229.875 157.334 227.404 159.656 226.637 160.395C220.625 166.18 214.175 171.093 207.375 175.761C204.822 177.513 202.336 179.02 199.917 180.284C196.821 181.902 192.709 184.212 189.408 185.573C184.797 187.478 181.744 188.655 180.248 189.103C174.427 190.846 170.467 191.909 168.368 192.291C164.647 192.964 161.824 193.408 159.897 193.622C152.82 194.406 145.342 194.351 137.464 193.455C128.707 192.462 120.156 189.544 112.635 185.184C111.106 184.296 108.932 182.732 106.113 180.489C104.202 178.969 102.289 177.115 100.375 174.927C97.0956 171.184 94.5319 167.554 92.6834 164.037C89.6134 158.192 87.5066 152.071 86.3629 145.675C85.1474 138.886 84.7324 132.024 85.1176 125.089C85.7268 114.138 87.8933 103.467 91.6173 93.078C93.5285 87.7464 95.2426 83.5059 96.7597 80.3565C97.8287 78.1343 99.5489 74.8951 101.92 70.6389C105.748 63.7668 110.526 56.9589 116.254 50.2152C122.942 42.3461 129.881 35.9533 138.141 29.522C143.044 25.7051 148.915 21.8939 155.754 18.0885C166.95 11.8611 178.79 7.23549 191.276 4.21166C194.985 3.31307 199.445 2.54999 204.656 1.9224C219.253 0.162303 233.12 0.804154 246.257 3.84795C254.92 5.85908 264.237 9.60749 271.834 14.631C282.322 21.5659 290.425 30.4163 296.144 41.1822C305.524 58.8417 307.065 80.3865 303.544 99.9158C302.648 104.899 301.281 110.501 299.441 116.719C298.742 119.09 297.928 121.366 297 123.549C295.822 126.33 294.518 130.228 292.753 133.373C292.09 134.552 291.536 135.557 291.091 136.39C285.952 146.015 279.578 154.392 271.969 161.521C267.843 165.389 262.297 169.984 256.734 173.707C251.61 177.133 247.393 179.878 244.084 181.94C243.248 182.462 240.936 183.773 237.15 185.872C234.991 187.068 232.696 188.406 230.265 189.886C225.75 192.636 222.318 194.754 219.971 196.24C215.229 199.241 211.084 202.737 207.536 206.728C206.237 208.192 205.171 209.772 204.338 211.469C202.398 215.419 202.654 221.059 207.124 223.451C209.952 224.968 213.065 225.402 216.464 224.751C221.66 223.759 226.583 221.619 231.233 218.333C238.422 213.249 243.977 208.055 250.579 202.06C252.855 199.989 255.533 197.854 257.67 196.001C260.203 193.799 263.035 191.728 266.168 189.788C271.095 186.735 275.881 184.6 280.524 183.382C283.49 182.606 286.864 182.345 290.648 182.599C293.936 182.822 297.173 183.722 300.359 185.299C304.54 187.367 307.976 190.308 310.666 194.122C314.364 199.368 316.108 205.131 315.899 211.41C315.71 217.069 314.092 222.395 311.043 227.387C308.546 231.484 306.327 234.61 304.386 236.767C300.547 241.029 296.968 244.961 292.682 248.71C285.246 255.222 278.564 260.391 272.636 264.217C267.022 267.837 261.199 271.002 255.166 273.712C248.68 276.626 241.441 278.812 234.83 280.066C226.277 281.689 217.93 281.801 209.789 280.4C205.149 279.601 200.286 278.001 195.2 275.599C183.93 270.284 176.776 260.712 173.775 249.056C170.948 238.081 172.471 225.843 178.765 215.979C181.04 212.415 182.519 210.01 185.318 207.148C190.753 201.591 195.8 197.273 200.459 194.195C207.306 189.668 214.063 185.171 220.728 180.703C226.351 176.929 231.489 172.928 236.142 168.701C239.905 165.278 242.918 161.565 245.182 157.563C246.37 155.454 246.867 153.294 246.673 151.08ZM190.089 63.1079C187.132 64.1576 183.991 65.6382 180.664 67.5495C169.542 73.9466 160.65 82.8255 154.903 93.9723C152.46 98.7049 150.946 103.617 150.361 108.709C149.665 114.774 150.983 120.251 154.316 125.141C158.271 130.943 165.797 133.951 172.879 134.246C194.609 135.145 214.135 122.085 226.726 105.988C233.132 97.7934 237.938 86.1717 234.986 75.7823C233.108 69.1812 228.881 64.5228 222.305 61.807C211.689 57.4253 200.459 59.4236 190.089 63.1079Z" fill="#FFB8DF"/>
<path d="M73.5883 213.384H159.491C159.593 213.384 159.691 213.424 159.763 213.497C159.835 213.569 159.876 213.667 159.876 213.769V280.987C159.876 281.09 159.835 281.188 159.763 281.26C159.691 281.332 159.593 281.373 159.491 281.373H0.385232C0.283062 281.373 0.185079 281.332 0.112834 281.26C0.0405886 281.188 0 281.09 0 280.987V1.34031C0 1.23814 0.0405886 1.14015 0.112834 1.06791C0.185079 0.995663 0.283062 0.955078 0.385232 0.955078H72.8178C72.92 0.955078 73.018 0.995663 73.0902 1.06791C73.1625 1.14015 73.2031 1.23814 73.2031 1.34031V212.998C73.2031 213.101 73.2437 213.199 73.3159 213.271C73.3881 213.343 73.4861 213.384 73.5883 213.384Z" fill="#9CFF3F"/>
<path d="M540.522 264.306C540.843 254.634 533.346 246.535 523.777 246.218C514.208 245.9 506.191 253.484 505.87 263.157C505.549 272.83 513.046 280.928 522.615 281.246C532.184 281.563 540.201 273.979 540.522 264.306Z" fill="#9CFF3F"/>
</svg>
