<svg width="1208" height="628" viewBox="0 0 1208 628" fill="none" xmlns="http://www.w3.org/2000/svg">
<path d="M1019.66 301.506C1029.75 304.466 1036.33 306.266 1044.77 309.976C1051.1 312.762 1055.47 314.749 1057.88 315.936C1082.55 328.056 1102.4 345.456 1117.41 368.136C1118.52 369.822 1121.07 374.622 1125.06 382.536C1130.2 392.722 1133.93 403.466 1136.25 414.766C1142.04 442.939 1142.45 471.319 1137.48 499.905C1133.93 520.305 1126.69 538.816 1115.76 555.436C1108.11 567.062 1098.81 577.326 1087.87 586.226C1077.1 594.979 1065.18 602.062 1052.12 607.476C1038.01 613.309 1023.4 617.566 1008.27 620.246C987.143 623.979 965.993 625.866 944.819 625.906C866.239 626.072 782.503 626.089 693.609 625.956C693.387 625.956 693.173 625.867 693.016 625.71C692.858 625.552 692.769 625.338 692.769 625.116V582.726C692.77 582.178 692.973 581.648 693.339 581.236C697.249 576.886 702.499 571.996 705.939 566.916C710.993 559.456 714.993 553.279 717.939 548.386C724.679 537.216 729.049 524.346 732.519 511.006C738.449 488.196 736.619 462.146 726.509 440.576C719.169 424.909 708.289 412.206 693.869 402.466C693.506 402.219 693.209 401.888 693.003 401.501C692.797 401.114 692.69 400.683 692.689 400.246L692.739 288.105C692.739 287.144 692.878 286.187 693.149 285.266C693.276 284.839 694.903 279.836 698.029 270.256C713.089 224.176 717.749 172.226 708.619 124.626C705.239 107.006 700.649 91.7655 693.419 77.2255C693.005 76.3903 692.789 75.4662 692.789 74.5255V0.715528C692.789 0.556398 692.853 0.403787 692.965 0.291265C693.078 0.178743 693.23 0.115529 693.389 0.115529C728.369 0.0755295 806.239 -0.0244711 935.819 0.00552887C965.399 0.0155289 994.979 3.89553 1022.45 14.1455C1033.79 18.3789 1044.91 24.2589 1055.82 31.7855C1080.41 48.7522 1097.43 71.7189 1106.87 100.686C1116.03 128.776 1117.49 158.806 1113.48 188.416C1111.45 203.376 1107.41 217.349 1101.35 230.336C1092 250.369 1078.58 266.609 1061.1 279.056C1048.28 288.189 1034.46 295.432 1019.64 300.786C1019.56 300.813 1019.5 300.863 1019.46 300.929C1019.41 300.995 1019.39 301.073 1019.39 301.153C1019.39 301.232 1019.42 301.309 1019.47 301.372C1019.52 301.436 1019.58 301.482 1019.66 301.506ZM848.609 137.576L848.969 242.076C848.969 242.129 848.991 242.179 849.028 242.217C849.066 242.254 849.116 242.276 849.169 242.276L907.289 242.076C914.126 242.052 920.891 240.759 927.199 238.27C933.507 235.781 939.233 232.145 944.052 227.57C948.87 222.995 952.686 217.57 955.282 211.605C957.877 205.64 959.202 199.252 959.179 192.806L959.159 186.086C959.137 179.639 957.769 173.26 955.132 167.313C952.495 161.366 948.642 155.968 943.792 151.426C938.941 146.884 933.19 143.288 926.865 140.843C920.54 138.398 913.766 137.152 906.929 137.176L848.809 137.376C848.756 137.376 848.706 137.397 848.668 137.434C848.631 137.472 848.609 137.522 848.609 137.576ZM848.769 369.206C848.803 402.726 848.789 452.516 848.729 518.576C848.729 526.226 849.259 531.186 850.459 537.616C850.753 539.182 851.329 540.516 852.189 541.616C852.513 542.033 852.992 542.301 853.524 542.363C854.056 542.425 854.597 542.275 855.029 541.946C856.363 540.932 857.359 539.692 858.019 538.226C859.066 535.899 860.663 530.909 862.809 523.256C864.869 515.896 868.536 508.635 873.809 501.475C882.429 489.785 900.789 482.315 914.889 481.905C924.509 481.632 930.67 481.389 933.37 481.176C966.03 478.606 991.409 460.056 990.009 424.706C989.463 411.012 984.583 398.989 975.37 388.636C971.44 384.216 966.249 380.856 961.219 378.346C953.659 374.572 945.873 371.916 937.859 370.376C931.933 369.242 923.713 368.706 913.199 368.766C895.973 368.859 874.643 368.859 849.209 368.766C849.093 368.766 848.981 368.812 848.898 368.894C848.816 368.977 848.769 369.089 848.769 369.206Z" fill="white"/>
<path d="M550.679 335.177C549.949 326.923 540.789 327.831 535.499 330.859C530.699 333.61 526.366 336.797 522.499 340.421C513.179 349.139 507.663 354.323 505.949 355.973C492.529 368.888 478.129 379.854 462.949 390.276C457.249 394.186 451.699 397.552 446.299 400.373C439.389 403.984 430.209 409.142 422.839 412.18C412.546 416.434 405.729 419.061 402.389 420.061C389.396 423.952 380.556 426.324 375.869 427.177C367.563 428.68 361.259 429.67 356.959 430.148C341.159 431.899 324.466 431.775 306.879 429.775C287.329 427.559 268.239 421.044 251.449 411.31C248.036 409.33 243.183 405.837 236.889 400.831C232.623 397.437 228.353 393.298 224.079 388.413C216.759 380.058 211.036 371.954 206.909 364.102C200.056 351.053 195.353 337.39 192.799 323.112C190.086 307.955 189.159 292.636 190.019 277.155C191.379 252.707 196.216 228.886 204.529 205.692C208.796 193.79 212.623 184.323 216.009 177.293C218.396 172.332 222.236 165.1 227.529 155.599C236.076 140.257 246.743 125.059 259.529 110.004C274.459 92.4374 289.949 78.1659 308.389 63.8084C319.336 55.2876 332.443 46.7795 347.709 38.2841C372.703 24.382 399.136 14.0557 427.009 7.30523C435.289 5.29919 445.246 3.59566 456.879 2.19462C489.466 -1.73465 520.423 -0.301771 549.749 6.49326C569.089 10.983 589.889 19.351 606.849 30.5656C630.263 46.0471 648.353 65.8049 661.119 89.8391C682.059 129.262 685.499 177.359 677.639 220.957C675.639 232.083 672.586 244.587 668.479 258.47C666.919 263.762 665.103 268.844 663.029 273.716C660.399 279.925 657.489 288.627 653.549 295.648C652.069 298.279 650.833 300.523 649.839 302.383C638.366 323.87 624.136 342.57 607.149 358.485C597.939 367.12 585.559 377.38 573.139 385.691C561.699 393.339 552.286 399.465 544.899 404.07C543.033 405.235 537.873 408.161 529.419 412.848C524.599 415.517 519.476 418.503 514.049 421.809C503.969 427.948 496.309 432.676 491.069 435.994C480.483 442.694 471.229 450.498 463.309 459.407C460.409 462.674 458.029 466.202 456.169 469.992C451.839 478.809 452.409 491.399 462.389 496.739C468.703 500.127 475.653 501.095 483.239 499.643C494.839 497.426 505.829 492.65 516.209 485.314C532.259 473.965 544.659 462.369 559.399 448.986C564.479 444.362 570.459 439.595 575.229 435.459C580.883 430.543 587.206 425.919 594.199 421.589C605.199 414.775 615.883 410.008 626.249 407.289C632.869 405.557 640.403 404.974 648.849 405.541C656.189 406.037 663.416 408.047 670.529 411.568C679.863 416.185 687.533 422.751 693.539 431.266C701.793 442.977 705.686 455.841 705.219 469.858C704.799 482.493 701.186 494.382 694.379 505.527C688.806 514.672 683.853 521.652 679.519 526.466C670.949 535.98 662.959 544.759 653.389 553.127C636.789 567.666 621.873 579.206 608.639 587.746C596.106 595.827 583.106 602.893 569.639 608.943C555.159 615.448 538.999 620.329 524.239 623.128C505.146 626.752 486.513 627 468.339 623.873C457.979 622.09 447.123 618.518 435.769 613.155C410.609 601.291 394.639 579.922 387.939 553.901C381.629 529.399 385.029 502.079 399.079 480.06C404.159 472.103 407.459 466.734 413.709 460.344C425.843 447.938 437.109 438.3 447.509 431.428C462.796 421.321 477.879 411.282 492.759 401.309C505.313 392.884 516.783 383.952 527.169 374.514C535.569 366.872 542.296 358.584 547.349 349.649C550.003 344.943 551.113 340.119 550.679 335.177ZM424.359 138.786C417.759 141.13 410.746 144.435 403.319 148.702C378.489 162.983 358.639 182.804 345.809 207.689C340.356 218.254 336.976 229.22 335.669 240.588C334.116 254.127 337.059 266.354 344.499 277.269C353.329 290.223 370.129 296.938 385.939 297.597C434.449 299.603 478.039 270.449 506.149 234.512C520.449 216.219 531.179 190.274 524.589 167.081C520.396 152.344 510.959 141.945 496.279 135.882C472.579 126.1 447.509 130.562 424.359 138.786Z" fill="white"/>
<path d="M164.28 474.265H356.05C356.278 474.265 356.497 474.356 356.658 474.517C356.819 474.678 356.91 474.897 356.91 475.125V625.185C356.91 625.413 356.819 625.632 356.658 625.793C356.497 625.955 356.278 626.045 356.05 626.045H0.860001C0.631914 626.045 0.413173 625.955 0.251892 625.793C0.0906108 625.632 0 625.413 0 625.185V0.895149C0 0.667063 0.0906108 0.448322 0.251892 0.287041C0.413173 0.125759 0.631914 0.0351562 0.860001 0.0351562H162.56C162.788 0.0351562 163.007 0.125759 163.168 0.287041C163.329 0.448322 163.42 0.667063 163.42 0.895149V473.405C163.42 473.633 163.511 473.852 163.672 474.013C163.833 474.175 164.052 474.265 164.28 474.265Z" fill="white"/>
<path d="M1206.67 587.946C1207.38 566.353 1190.65 548.273 1169.29 547.565C1147.92 546.856 1130.03 563.787 1129.31 585.38C1128.59 606.974 1145.33 625.053 1166.69 625.762C1188.05 626.47 1205.95 609.54 1206.67 587.946Z" fill="white"/>
</svg>
