<svg width="1137" height="554" viewBox="0 0 1137 554" fill="none" xmlns="http://www.w3.org/2000/svg">
<path d="M141.548 419.428H306.782C306.979 419.428 307.167 419.506 307.306 419.645C307.445 419.784 307.523 419.972 307.523 420.169V549.465C307.523 549.661 307.445 549.85 307.306 549.989C307.167 550.128 306.979 550.206 306.782 550.206H0.741C0.544475 550.206 0.356002 550.128 0.217037 549.989C0.0780728 549.85 0 549.661 0 549.465V11.5594C0 11.3628 0.0780728 11.1744 0.217037 11.0354C0.356002 10.8964 0.544475 10.8184 0.741 10.8184H140.066C140.263 10.8184 140.451 10.8964 140.59 11.0354C140.729 11.1744 140.807 11.3628 140.807 11.5594V418.687C140.807 418.883 140.885 419.072 141.024 419.211C141.163 419.35 141.352 419.428 141.548 419.428Z" fill="white"/>
<path d="M974.474 270.574C983.168 273.124 988.838 274.675 996.11 277.872C1001.57 280.273 1005.33 281.984 1007.41 283.007C1028.67 293.45 1045.76 308.442 1058.7 327.984C1059.66 329.437 1061.85 333.573 1065.29 340.391C1069.72 349.168 1072.93 358.425 1074.93 368.161C1079.92 392.436 1080.27 416.889 1075.99 441.52C1072.94 459.098 1066.7 475.046 1057.28 489.367C1050.68 499.384 1042.67 508.228 1033.25 515.896C1023.96 523.438 1013.7 529.541 1002.44 534.206C990.288 539.232 977.694 542.9 964.66 545.209C946.457 548.425 928.234 550.051 909.99 550.086C842.284 550.229 770.134 550.244 693.541 550.129C693.349 550.129 693.165 550.052 693.029 549.917C692.893 549.781 692.817 549.597 692.817 549.405V512.88C692.817 512.409 692.992 511.952 693.308 511.597C696.677 507.849 701.201 503.635 704.165 499.258C708.519 492.83 711.965 487.508 714.504 483.292C720.312 473.668 724.077 462.579 727.067 451.085C732.176 431.431 730.599 408.985 721.888 390.4C715.564 376.901 697.573 365.956 685.149 357.563C684.836 357.351 684.579 357.066 684.402 356.733C684.225 356.399 684.132 356.028 684.132 355.651L684.175 259.028C684.175 258.199 684.294 257.375 684.528 256.581C684.637 256.213 686.039 251.902 688.733 243.648C701.709 203.944 714.34 159.182 706.474 118.169C703.562 102.987 699.607 89.8558 693.377 77.3277C693.02 76.6081 692.834 75.8118 692.834 75.0013V11.4046C692.834 11.2675 692.889 11.136 692.986 11.039C693.083 10.9421 693.214 10.8876 693.351 10.8876C723.491 10.8532 790.586 10.767 902.236 10.7928C927.723 10.8015 953.209 14.1446 976.878 22.9763C986.649 26.6238 996.233 31.6902 1005.63 38.1754C1026.82 52.7943 1041.48 72.583 1049.62 97.5415C1057.51 121.745 1058.77 147.619 1055.31 173.132C1053.57 186.022 1050.08 198.062 1044.86 209.252C1036.8 226.513 1025.24 240.506 1010.18 251.23C999.134 259.1 987.226 265.341 974.457 269.953C974.393 269.977 974.338 270.02 974.299 270.077C974.261 270.134 974.241 270.201 974.243 270.27C974.245 270.338 974.268 270.404 974.31 270.459C974.351 270.513 974.409 270.553 974.474 270.574ZM827.093 129.327L827.403 219.367C827.403 219.413 827.421 219.457 827.454 219.489C827.486 219.521 827.53 219.539 827.576 219.539L877.653 219.367C883.544 219.347 889.373 218.232 894.808 216.088C900.243 213.943 905.177 210.811 909.329 206.869C913.48 202.927 916.768 198.252 919.005 193.113C921.241 187.973 922.382 182.469 922.363 176.915L922.346 171.124C922.327 165.57 921.148 160.074 918.876 154.95C916.604 149.826 913.283 145.174 909.105 141.261C904.926 137.348 899.97 134.249 894.52 132.142C889.071 130.036 883.234 128.962 877.343 128.982L827.265 129.155C827.22 129.155 827.176 129.173 827.144 129.205C827.111 129.237 827.093 129.281 827.093 129.327ZM827.231 328.906C827.26 357.787 827.248 400.688 827.196 457.607C827.196 464.199 827.653 468.472 828.687 474.012C828.94 475.362 829.437 476.511 830.178 477.459C830.456 477.818 830.869 478.05 831.328 478.103C831.786 478.156 832.252 478.027 832.625 477.743C833.774 476.87 834.632 475.802 835.201 474.538C836.103 472.533 837.479 468.234 839.328 461.639C841.103 455.298 844.262 449.042 848.806 442.873C856.233 432.801 872.053 426.364 884.202 426.011C892.491 425.776 897.798 425.566 900.125 425.382C928.265 423.168 950.133 407.185 948.927 376.726C948.456 364.927 944.251 354.568 936.313 345.647C932.927 341.839 928.455 338.944 924.121 336.781C917.607 333.53 910.898 331.241 903.993 329.914C898.887 328.937 891.804 328.475 882.746 328.527C867.903 328.607 849.524 328.607 827.61 328.527C827.51 328.527 827.413 328.567 827.342 328.638C827.271 328.709 827.231 328.805 827.231 328.906Z" fill="white"/>
<path d="M1135.61 517.379C1136.22 498.774 1121.8 483.196 1103.4 482.585C1084.99 481.975 1069.57 496.563 1068.95 515.168C1068.34 533.774 1082.76 549.351 1101.16 549.962C1119.57 550.573 1134.99 535.985 1135.61 517.379Z" fill="white"/>
<path d="M180.47 247.585C191.359 390.449 324.75 378.253 390.084 354.297C392.261 352.12 387.906 344.497 387.906 343.953C378.65 317.275 401.517 302.03 414.584 310.197C427.651 318.364 424.384 333.064 427.107 332.519C434.185 330.886 463.04 305.297 475.563 292.774C488.085 280.252 496.796 277.53 501.697 281.885C516.976 297.28 444.529 346.675 423.296 357.564C339.994 398.942 340.539 462.643 354.695 489.866C410.229 580.789 589.898 551.389 623.109 539.411C733.676 499.534 694.902 466.159 678.531 476.068C663.831 485.868 659.043 480.066 662.854 478.432C666.665 476.799 696.626 462.713 700.503 451.081C708.688 426.525 682.84 423.509 675.212 432.57C656.129 451.943 650.876 445.221 654.143 443.043C673.199 431.065 683.861 414.451 680.255 404.984C669.915 377.843 640.532 400.031 631.82 407.109C623.109 414.187 612.22 421.809 613.309 416.909C623.654 402.209 618.754 392.409 612.22 388.053C590.442 374.987 568.664 425.076 565.942 429.432C546.886 439.232 508.23 432.698 475.563 418.543C449.429 407.218 434.871 404.386 430.373 414.732C428.559 418.906 424.929 427.798 422.751 421.264C416.218 393.497 433.64 377.164 506.597 341.231C610.042 282.974 666.301 218.442 662.854 150.373C647.082 -6.87442 475.563 -6.59603 407.55 3.89608C209.914 34.3853 175.026 192.051 180.47 247.585Z" fill="white"/>
<ellipse cx="405.423" cy="169.487" rx="97.6506" ry="65.6643" transform="rotate(-27.3844 405.423 169.487)" fill="#1E1E1E"/>
<path d="M426.367 124.58C431.817 124.055 437.398 127.216 441.88 133.367C446.362 139.518 449.379 148.156 450.267 157.38C450.707 161.947 450.611 166.521 449.984 170.84C449.358 175.159 448.213 179.138 446.615 182.552C445.018 185.965 442.999 188.745 440.674 190.733C438.349 192.72 435.763 193.877 433.064 194.137C427.614 194.662 422.034 191.501 417.552 185.35C413.07 179.199 410.053 170.561 409.165 161.337C408.725 156.77 408.821 152.196 409.447 147.877C410.074 143.558 411.219 139.579 412.816 136.165C414.413 132.752 416.432 129.972 418.757 127.984C421.082 125.996 423.668 124.84 426.367 124.58ZM424.559 149.918C423.454 149.928 422.364 150.317 421.35 151.063C420.335 151.81 419.418 152.899 418.648 154.268C417.879 155.638 417.274 157.261 416.867 159.045C416.46 160.83 416.259 162.74 416.275 164.667C416.309 168.559 417.228 172.284 418.83 175.022C420.431 177.761 422.584 179.288 424.814 179.269C425.919 179.259 427.01 178.87 428.024 178.124C429.038 177.377 429.955 176.288 430.725 174.919C431.494 173.549 432.099 171.926 432.506 170.142C432.914 168.357 433.114 166.447 433.098 164.52C433.064 160.628 432.145 156.903 430.544 154.165C428.942 151.426 426.789 149.899 424.559 149.918Z" fill="#FEFEFE"/>
<path d="M386.365 200.178C371.571 201.502 362.778 186.414 361.248 172.885C359.896 160.886 364.395 135.534 380.424 134.093C396.453 132.652 405.393 156.798 406.188 168.856C407.099 182.444 401.158 198.855 386.365 200.178ZM393.244 155.443C390.959 155.635 388.91 157.52 387.548 160.684C386.187 163.848 385.624 168.032 385.983 172.315C386.162 174.435 386.561 176.517 387.158 178.439C387.756 180.362 388.54 182.089 389.466 183.522C390.392 184.954 391.442 186.064 392.555 186.787C393.669 187.511 394.824 187.835 395.956 187.74C398.241 187.548 400.29 185.662 401.651 182.498C403.013 179.334 403.576 175.151 403.216 170.868C403.038 168.747 402.639 166.666 402.041 164.743C401.444 162.82 400.66 161.093 399.734 159.661C398.808 158.229 397.758 157.119 396.644 156.395C395.531 155.671 394.375 155.348 393.244 155.443Z" fill="#FEFEFE"/>
<path d="M433.098 164.521C433.027 156.416 429.204 149.878 424.559 149.919C419.913 149.959 416.205 156.563 416.276 164.668C416.346 172.772 420.17 179.31 424.815 179.269C429.46 179.229 433.169 172.626 433.098 164.521Z" fill="black"/>
<path d="M403.216 170.869C402.467 161.951 398.002 155.045 393.243 155.445C388.485 155.844 385.234 163.398 385.983 172.317C386.732 181.235 391.197 188.141 395.955 187.741C400.714 187.342 403.964 179.788 403.216 170.869Z" fill="black"/>
<path d="M411.228 213.307C415.491 211.373 417.941 207.588 416.7 204.853C415.459 202.118 410.998 201.468 406.735 203.402C402.471 205.336 400.021 209.121 401.262 211.856C402.503 214.591 406.965 215.241 411.228 213.307Z" fill="#FEFEFE"/>
</svg>
