<svg width="1479" height="283" viewBox="0 0 1479 283" fill="none" xmlns="http://www.w3.org/2000/svg">
<path d="M102.909 165.087C89.6594 166.467 82.5894 173.507 87.6194 187.337C88.0794 188.61 90.0027 193.36 93.3894 201.587C94.236 203.634 95.4361 207.59 96.9894 213.457C99.4294 222.67 100.119 231.73 99.0593 240.637C97.5693 253.127 90.1194 266.107 79.4494 273.277C70.476 279.297 60.8494 282.314 50.5694 282.327C40.6294 282.34 31.9694 280.064 24.5894 275.497C6.63938 264.407 0.169363 243.177 0.0093634 222.867C-0.10397 208.714 1.08269 194.717 3.56936 180.877C7.93603 156.597 14.1094 133.337 22.0894 111.097C30.5094 87.6071 41.8794 64.0671 56.1394 43.6771C59.586 38.7571 64.1361 33.3071 69.7894 27.3271C87.2594 8.86711 111.289 -4.1629 137.549 1.2271C148.249 3.4271 157.289 9.00711 165.079 17.7571C172.853 26.4838 179.116 36.5938 183.869 48.0871C187.309 56.4004 189.883 63.0404 191.589 68.0071C193.959 74.9071 195.019 81.8671 196.959 88.9771C197.666 91.5771 198.316 94.3938 198.909 97.4271C204.476 125.76 207.273 153.244 207.299 179.877C207.313 193.357 206.066 207.394 203.559 221.987C201.519 233.867 197.869 245.167 192.719 254.397C189.106 260.877 184.019 266.36 177.459 270.847C170.189 275.827 162.139 276.987 153.229 276.477C142.169 275.844 132.969 271.137 125.629 262.357C114.299 248.797 112.339 227.787 116.339 211.387C118.759 201.457 120.449 196.517 123.709 185.967C124.569 183.187 124.893 179.954 124.679 176.267C124.079 165.767 111.069 164.237 102.909 165.087ZM84.8093 108.047C84.2993 116.297 87.9894 121.857 96.1194 122.857C104.119 123.837 112.829 120.987 119.189 116.477C130.089 108.727 133.139 90.5071 132.179 78.0171C131.209 65.4071 122.789 56.8871 110.009 63.8371C106.116 65.9571 102.473 69.3071 99.0794 73.8871C91.2594 84.4171 85.5793 95.3971 84.8093 108.047Z" fill="#F5F8FA"/>
<path d="M290.463 4.24609H226.023C225.206 4.24609 224.543 4.90872 224.543 5.7261V276.586C224.543 277.404 225.206 278.066 226.023 278.066H290.463C291.28 278.066 291.943 277.404 291.943 276.586V5.7261C291.943 4.90872 291.28 4.24609 290.463 4.24609Z" fill="#9CFF3F"/>
<path d="M1146.71 15.4838C1169.13 5.62489 1193.27 1.94692 1217.15 5.96423C1226.65 7.56858 1235.61 10.7232 1244.02 15.4261C1249.87 18.6995 1255.04 23.2566 1259.54 29.098C1273.83 47.6611 1276.78 72.9009 1266.12 94.7826C1258.07 111.337 1241.56 120.206 1225.72 121.933C1222.74 122.263 1219.11 122.204 1214.83 121.758C1203.54 120.584 1193.85 115.81 1186.68 106.087C1181.71 99.3432 1180.32 91.0559 1181.8 82.6332C1182.97 75.9668 1187.38 62.023 1178.18 59.4125C1176.35 58.8982 1172.19 59.4805 1170.3 60.3539C1164.25 63.1097 1161.71 66.8651 1157.23 73.6478C1152.64 80.6149 1148.9 88.2386 1146.01 96.5189C1140.65 111.838 1137.32 127.393 1136 143.184C1134.87 156.808 1134.63 168.704 1136.9 181.843C1137.34 184.366 1138.34 187.274 1139.9 190.567C1143.78 198.757 1149.55 202.36 1157.2 201.376C1163.7 200.542 1168.84 195.855 1172.78 189.674C1176.02 184.609 1179.97 177.823 1184.63 169.316C1187.19 164.606 1190.63 159.431 1194.92 153.79C1211.9 131.482 1241.02 127.018 1263.05 141.874C1272.07 147.959 1278 162.62 1277.91 174.682C1277.77 192.75 1269.93 209.314 1260.14 223.006C1251.05 235.737 1240.89 246.353 1229.66 254.854C1219.62 262.461 1209.57 268.426 1199.51 272.747C1192.64 275.697 1184.51 277.996 1175.14 279.646C1152.64 283.615 1129.4 280.898 1109.26 269.865C1095.77 262.47 1082.71 247.751 1075.5 233.137C1070.03 222.049 1066.18 209.896 1063.96 196.68C1058.17 162.417 1063.21 126.91 1075.6 95.1019C1083.5 74.8086 1094.59 57.2615 1108.87 42.4603C1119.45 31.4952 1133.67 21.2186 1146.71 15.4838Z" fill="#9CFF3F"/>
<path d="M828.755 10.923C854.181 3.73584 879.765 2.45816 905.506 7.08997C915.47 8.88191 924.914 11.8251 933.837 15.92C938.906 18.2489 943.418 21.6647 947.922 25.0997C952.994 28.9682 957.318 34.0537 960.894 40.3546C967.023 51.1643 968.861 62.8867 966.41 75.5206C963.803 88.9987 954.408 97.2859 943.629 102.109C942.044 102.82 940.258 103.376 938.273 103.777C927.654 105.912 916.926 106.397 906.62 103.273C897.232 100.42 883.451 90.4731 884.742 77.4025C885.61 68.6208 885.753 62.8861 877.167 60.0138C866.178 56.3363 848.366 59.8877 847.387 76.1603C846.999 82.7296 849.808 88.6979 854.463 92.4532C858.798 95.9561 863.218 98.8571 868.21 100.924C871.424 102.263 875.607 104.243 879.883 105.786C891.747 110.049 903.53 114.72 915.231 119.798C925.335 124.194 934.967 128.88 943.815 136.139C957.419 147.298 965.887 160.592 968.611 179.107C971.473 198.565 968.707 216.284 960.312 232.263C949.162 253.504 928.734 267.012 908.602 273.65C877.531 283.897 844.586 283.818 813.49 273.688C782.908 263.732 752.603 233.796 762.404 192.731C766.224 176.729 781.929 167.298 795.272 165.57C799.883 164.975 804.575 164.658 809.349 164.619C821.114 164.532 835.056 170.577 842.596 180.872C847.69 187.83 846.788 195.118 846.088 203.764C845.903 206.099 846.647 208.66 848.323 211.448C851.064 215.99 855.779 218.746 860.788 219.532C873.634 221.551 892.029 216.844 891.894 198.329C891.818 187.665 884.556 180.698 876.982 176.457C872.051 173.688 867.128 171.337 862.214 169.402C857.193 167.429 847.735 163.761 833.841 158.399C826.183 155.442 817.796 151.5 808.682 146.57C800.636 142.217 793.709 136.951 787.901 130.773C770.071 111.821 765.339 85.136 773.503 59.0138C777.965 44.769 787.218 33.5614 798.3 25.7404C807.738 19.0838 818.078 13.9505 828.755 10.923Z" fill="#9CFF3F"/>
<path d="M489.247 6.15477C506.717 6.20652 523.596 9.08485 539.885 14.7905C546.891 17.2488 553.797 21.192 560.6 26.6196C595.442 54.4109 597.238 109.847 585.582 151.447C582.773 161.461 578.515 173.231 573.488 182.925C565.133 199.059 555.652 212.946 545.048 224.583C531.632 239.307 515.891 251.686 497.825 261.719C496.222 262.612 492.218 264.556 485.814 267.551C481.282 269.667 477.181 271.307 473.509 272.471C459.233 276.987 444.948 279.719 430.655 280.67C416.174 281.641 399.297 280.583 385.752 273.916C357.05 259.798 363.663 215.899 368.167 189.156C371.363 170.224 375.2 149.797 379.704 130.215C384.955 107.386 390.078 86.6591 395.071 68.0347C395.167 67.6789 395.209 67.3584 395.198 67.0737C395.188 66.8891 395.129 66.7124 395.03 66.5669C394.931 66.4213 394.795 66.3131 394.641 66.2583C381.239 61.5229 373.977 46.1819 378.878 30.7046C382.285 19.9626 393.123 14.2378 402.587 12.0932C406.393 11.2264 410.542 10.592 415.035 10.1909C440.835 7.87174 463.556 6.07716 489.247 6.15477ZM514.87 91.3716C509.7 74.08 496.264 67.656 481.117 69.9653C470.642 71.5664 465.479 80.203 461.954 90.6636C459.013 99.4032 456.472 108.453 454.33 117.814C450.816 133.204 447.799 148.19 445.28 162.771C444.504 167.244 444.15 171.679 444.074 176.647C443.99 183.022 445.314 188.185 451.538 188.806C453.781 189.033 456.149 188.845 458.639 188.244C466.787 186.29 473.948 182.796 480.122 177.763C486.183 172.827 490.583 168.835 493.321 165.789C499.191 159.261 504.178 151.586 508.283 142.762C515.224 127.867 519.736 107.654 514.87 91.3716Z" fill="#9CFF3F"/>
<path d="M751.405 9.83692C751.598 9.83713 751.788 9.90596 751.947 10.0342C752.107 10.1624 752.23 10.3438 752.3 10.5547C752.536 11.2857 752.668 12.3893 752.696 13.8643C752.977 29.791 753.002 42.9717 752.771 53.4063C752.687 57.5982 752.974 62.4113 753.008 67.0205C753.025 69.2071 752.044 70.3097 750.064 70.3291C741.552 70.4067 716.12 70.378 673.77 70.2422C673.678 70.2422 673.589 70.2849 673.524 70.3613C673.46 70.4377 673.423 70.5414 673.423 70.6494V108.882C673.423 109.034 673.475 109.18 673.566 109.287C673.658 109.394 673.783 109.454 673.912 109.454C693.282 109.435 715.656 109.426 741.031 109.426C742.493 109.426 743.221 110.141 743.216 111.57C743.137 125.233 743.129 143.534 743.19 166.474C743.199 169.239 741.369 168.89 739.277 168.88C721.436 168.776 699.575 168.75 673.693 168.802C673.626 168.802 673.562 168.833 673.515 168.888C673.467 168.942 673.441 169.016 673.44 169.093V215.36C673.44 215.412 673.458 215.461 673.489 215.497C673.521 215.533 673.564 215.555 673.608 215.555C708.959 215.626 735.437 215.626 753.042 215.555C754.369 215.548 755.041 216.263 755.058 217.699C755.288 239.513 755.291 258.431 755.066 274.455C755.062 274.802 754.938 275.133 754.724 275.376C754.509 275.619 754.22 275.756 753.919 275.756H604.146C603.785 275.755 603.436 275.611 603.156 275.348C602.877 275.084 602.684 274.718 602.61 274.31C602.357 272.886 602.23 271.221 602.23 269.313C602.292 179.133 602.304 96.8951 602.265 22.5977C602.259 19.5573 602.385 15.7337 602.644 11.1279C602.661 10.7787 602.795 10.45 603.018 10.21C603.24 9.96992 603.536 9.83621 603.842 9.83692H751.405Z" fill="#FFB8DF"/>
<path d="M1048.9 0.939453C1050.11 0.939468 1051.09 2.13479 1051.09 3.60938V279.657C1051.09 281.132 1050.11 282.327 1048.9 282.327H982.603C981.392 282.327 980.41 281.132 980.41 279.657V3.60938C980.41 2.13498 981.392 0.939767 982.603 0.939453H1048.9Z" fill="#66DDFF"/>
<path d="M1292.86 9.78076C1302.76 9.83898 1326.15 9.86206 1363.02 9.84912C1365.92 9.84915 1366.53 10.936 1367.55 13.5171C1369.47 18.3979 1371.16 24.1424 1373.24 29.062C1383.67 53.6899 1393.46 78.7447 1402.89 103.373C1405.47 110.155 1408.02 115.618 1410.32 121.994C1410.35 122.056 1410.39 122.108 1410.44 122.14C1410.49 122.172 1410.55 122.181 1410.6 122.167C1410.66 122.153 1410.71 122.116 1410.75 122.063C1410.78 122.01 1410.8 121.944 1410.8 121.877C1409.93 89.1891 1409.64 55.3911 1409.95 20.4839C1409.99 16.8483 1410.14 13.7982 1410.43 11.3335C1410.47 10.9281 1410.64 10.5554 1410.91 10.2856C1411.18 10.0159 1411.52 9.86672 1411.88 9.86767H1477.24C1477.63 9.86767 1478 10.0461 1478.28 10.3628C1478.55 10.6793 1478.71 11.1086 1478.71 11.5561V274.962C1478.71 275.062 1478.69 275.16 1478.66 275.251C1478.62 275.343 1478.58 275.427 1478.51 275.498C1478.45 275.568 1478.38 275.624 1478.3 275.662C1478.22 275.7 1478.13 275.719 1478.04 275.719H1409.93C1409.28 275.719 1408.66 275.442 1408.18 274.943C1407.18 273.895 1406.38 272.611 1405.79 271.09C1389.89 230.19 1373.75 189.58 1357.09 146.088C1357.08 146.042 1357.05 146.003 1357.01 145.978C1356.98 145.954 1356.93 145.945 1356.89 145.955C1356.85 145.964 1356.82 145.992 1356.79 146.031C1356.77 146.07 1356.76 146.118 1356.76 146.166C1357.23 194.82 1357.88 232.412 1357.08 271.537C1357.06 272.824 1356.99 273.743 1356.88 274.292C1356.79 274.703 1356.6 275.069 1356.31 275.332C1356.03 275.594 1355.67 275.738 1355.31 275.739H1290.43C1289.99 275.739 1289.57 275.54 1289.25 275.184C1288.94 274.828 1288.75 274.344 1288.75 273.836C1288.66 269.25 1288.62 263.725 1288.61 257.262C1288.55 121.69 1288.55 47.5924 1288.59 34.9712C1288.63 26.0116 1288.77 18.0289 1289.02 11.0229C1289.03 10.7645 1289.11 10.5178 1289.26 10.3237C1289.41 10.1297 1289.61 9.99959 1289.83 9.95556C1290.5 9.83265 1291.51 9.77429 1292.86 9.78076Z" fill="#9CFF3F"/>
</svg>
